<?xml version="1.0" standalone="no"?><!DOCTYPE svg PUBLIC "-//W3C//DTD SVG 1.1//EN" "http://www.w3.org/Graphics/SVG/1.1/DTD/svg11.dtd"><svg t="1581782851028" class="icon" viewBox="0 0 1024 1024" version="1.1" xmlns="http://www.w3.org/2000/svg" p-id="12621" xmlns:xlink="http://www.w3.org/1999/xlink" width="200" height="200"><defs><style type="text/css"></style></defs><path d="M357.416807 548.994566l306.228473 0 0-76.54535-306.228473 0L357.416807 548.994566zM200.461079 510.692215c0-88.038102 68.861344-156.953681 156.955728-156.953681l114.842585 0 0-72.729441-114.842585 0c-126.337383 0-229.6821 103.34574-229.6821 229.683123 0 126.335337 103.344716 229.683123 229.6821 229.683123l114.842585 0 0-72.728418-114.842585 0C269.322423 667.647943 200.461079 598.678128 200.461079 510.692215M663.64528 281.009092l-114.842585 0 0 72.729441 114.842585 0c88.034009 0 156.898423 68.915579 156.898423 156.953681 0 87.98489-68.863391 156.954705-156.898423 156.954705l-114.842585 0 0 72.728418 114.842585 0c126.33636 0 229.683123-103.347786 229.683123-229.683123C893.32738 384.354831 789.98164 281.009092 663.64528 281.009092" p-id="12622"></path></svg>