<?xml version="1.0" standalone="no"?><!DOCTYPE svg PUBLIC "-//W3C//DTD SVG 1.1//EN" "http://www.w3.org/Graphics/SVG/1.1/DTD/svg11.dtd"><svg t="1582012501571" class="icon" viewBox="0 0 1024 1024" version="1.1" xmlns="http://www.w3.org/2000/svg" p-id="7938" xmlns:xlink="http://www.w3.org/1999/xlink" width="200" height="200"><defs><style type="text/css"></style></defs><path d="M513 564.538c-3.453 0-6.906-0.894-10-2.68L322.545 457.672a19.999 19.999 0 0 1-10-17.32V231.98a19.998 19.998 0 0 1 10-17.32L503 110.475a19.998 19.998 0 0 1 20 0L703.455 214.66a19.999 19.999 0 0 1 10 17.32v208.371a19.998 19.998 0 0 1-10 17.32L523 561.858a19.98 19.98 0 0 1-10 2.68zM352.545 428.805L513 521.444l160.455-92.64V243.527L513 150.889l-160.455 92.638v185.278z" p-id="7939"></path><path d="M511.849 327.408a9.995 9.995 0 0 1-4.925-1.297l-110.393-62.465a9.998 9.998 0 0 1-0.098-17.35l111.561-64.802a10.002 10.002 0 0 1 10.017-0.017l110.395 63.634a10 10 0 0 1-0.04 17.351l-111.563 63.633a9.997 9.997 0 0 1-4.954 1.313z m-90.288-72.578l90.268 51.078 91.479-52.178-90.271-52.035-91.476 53.135zM299.191 927.299c-3.453 0-6.906-0.894-10-2.68L108.736 820.433a19.999 19.999 0 0 1-10-17.32V594.741a19.998 19.998 0 0 1 10-17.32l180.455-104.186a19.998 19.998 0 0 1 20 0l180.456 104.186a19.999 19.999 0 0 1 10 17.32v208.371a19.998 19.998 0 0 1-10 17.32L309.191 924.619a19.991 19.991 0 0 1-10 2.68zM138.736 791.565l160.455 92.64 160.456-92.64V606.288l-160.456-92.639-160.455 92.639v185.277z" p-id="7940"></path><path d="M298.039 690.169a9.995 9.995 0 0 1-4.925-1.297l-110.393-62.465a9.998 9.998 0 0 1-0.098-17.35l111.562-64.803a10.002 10.002 0 0 1 10.017-0.017l110.394 63.635a10.003 10.003 0 0 1-0.039 17.351l-111.563 63.633a10.014 10.014 0 0 1-4.955 1.313z m-90.288-72.578l90.268 51.077 91.479-52.178-90.271-52.035-91.476 53.136zM726.018 690.169a9.995 9.995 0 0 1-4.925-1.297L610.7 626.407a10 10 0 0 1-0.098-17.35l111.563-64.803a10.002 10.002 0 0 1 10.017-0.017l110.394 63.635a10.003 10.003 0 0 1-0.039 17.351l-111.563 63.633a10.02 10.02 0 0 1-4.956 1.313z m-90.288-72.578l90.268 51.077 91.479-52.178-90.271-52.035-91.476 53.136z" p-id="7941"></path><path d="M725.408 927.299c-3.453 0-6.906-0.894-10-2.68L534.953 820.433a19.999 19.999 0 0 1-10-17.32V594.741a19.998 19.998 0 0 1 10-17.32l180.455-104.186a19.998 19.998 0 0 1 20 0l180.455 104.186a19.999 19.999 0 0 1 10 17.32v208.371a19.998 19.998 0 0 1-10 17.32L735.408 924.619a19.991 19.991 0 0 1-10 2.68zM564.953 791.565l160.455 92.64 160.455-92.64V606.288l-160.455-92.639-160.455 92.639v185.277z" p-id="7942"></path></svg>