<?xml version="1.0" standalone="no"?><!DOCTYPE svg PUBLIC "-//W3C//DTD SVG 1.1//EN" "http://www.w3.org/Graphics/SVG/1.1/DTD/svg11.dtd"><svg t="1581849966320" class="icon" viewBox="0 0 1024 1024" version="1.1" xmlns="http://www.w3.org/2000/svg" p-id="3643" xmlns:xlink="http://www.w3.org/1999/xlink" width="200" height="200"><defs><style type="text/css"></style></defs><path d="M78.955789 613.861053l53.894737-53.894737c-37.187368-21.288421-57.936842-43.924211-57.936842-63.326316 0-56.858947 170.307368-139.587368 437.086316-139.587368h19.132632l71.949473-73.027369c-30.181053-2.155789-60.901053-3.503158-91.082105-3.503158-248.185263 0-512 75.452632-512 215.578948 0.538947 46.08 30.181053 85.692632 78.955789 117.76z" fill="" p-id="3644"></path><path d="M512.538947 74.913684c56.32 0 136.623158 149.018947 146.863158 386.964211l80.842106-19.941053C724.614737 215.578947 647.275789 0 512.538947 0c-101.591579 0-171.115789 123.418947-204.8 280.791579l87.309474-21.827368c29.911579-116.412632 78.686316-184.050526 117.490526-184.050527zM636.227368 736.741053c-30.181053 134.736842-83.536842 212.345263-124.496842 212.345263s-91.890526-75.452632-122.341052-203.991579l-77.608421 19.402105C347.082105 911.36 414.989474 1024 512.538947 1024c107.789474 0 178.930526-138.24 210.458948-308.816842z" fill="" p-id="3645"></path><path d="M686.08 582.063158l115.604211-199.949474h-230.938948l115.334737 199.949474zM130.694737 603.351579l161.414737 165.187368 62.517894-222.315789-223.932631 57.128421z" fill="" p-id="3646"></path><path d="M920.522105 361.633684l-55.781052 56.589474c53.894737 25.061053 84.884211 53.894737 84.88421 77.338947 0 56.858947-170.307368 139.587368-437.086316 139.587369a1115.351579 1115.351579 0 0 1-197.793684-16.976842L251.957895 681.768421A1153.077895 1153.077895 0 0 0 512.538947 710.871579c248.185263 0 512-75.452632 512-215.578947 0-54.703158-40.421053-99.435789-104.016842-133.658948z" fill="" p-id="3647"></path></svg>