<?xml version="1.0" standalone="no"?><!DOCTYPE svg PUBLIC "-//W3C//DTD SVG 1.1//EN" "http://www.w3.org/Graphics/SVG/1.1/DTD/svg11.dtd"><svg t="1581778078620" class="icon" viewBox="0 0 1024 1024" version="1.1" xmlns="http://www.w3.org/2000/svg" p-id="11840" xmlns:xlink="http://www.w3.org/1999/xlink" width="200" height="200"><defs><style type="text/css"></style></defs><path d="M165.174303 632.025212a72.486788 72.486788 0 0 1 72.393697 72.393697 72.486788 72.486788 0 0 1-72.393697 72.424727 72.486788 72.486788 0 0 1-72.393697-72.424727 72.486788 72.486788 0 0 1 72.393697-72.393697m-31.030303 202.938182v153.910303a31.030303 31.030303 0 0 0 62.060606 0v-153.910303c59.174788-14.118788 103.424-67.118545 103.424-130.544485 0-63.394909-44.249212-116.363636-103.424-130.482424V55.420121a31.030303 31.030303 0 1 0-62.060606 0v518.516364C75.000242 588.024242 30.72 641.024 30.72 704.418909c0 63.425939 44.280242 116.425697 103.424 130.513455M774.454303 704.449939a72.486788 72.486788 0 0 1 72.393697-72.393697 72.486788 72.486788 0 0 1 72.424727 72.393697 72.486788 72.486788 0 0 1-72.424727 72.393697 72.486788 72.486788 0 0 1-72.393697-72.393697z m103.424 130.513455c59.174788-14.118788 103.45503-67.087515 103.45503-130.513455 0-63.425939-44.280242-116.394667-103.45503-130.513454V55.389091a31.030303 31.030303 0 1 0-62.060606 0v518.516364c-59.143758 14.149818-103.424 67.118545-103.424 130.544484s44.280242 116.363636 103.424 130.513455v153.910303a31.030303 31.030303 0 0 0 62.060606 0v-153.910303zM434.238061 339.843879a72.486788 72.486788 0 0 1 72.393697-72.393697 72.486788 72.486788 0 0 1 72.424727 72.393697 72.486788 72.486788 0 0 1-72.424727 72.393697 72.486788 72.486788 0 0 1-72.393697-72.393697z m103.424 130.513454c59.174788-14.118788 103.45503-67.087515 103.45503-130.513454 0-63.425939-44.280242-116.394667-103.45503-130.513455V55.389091a31.030303 31.030303 0 1 0-62.060606 0v153.910303c-59.143758 14.149818-103.424 67.118545-103.424 130.544485s44.280242 116.363636 103.424 130.513454v518.516364a31.030303 31.030303 0 0 0 62.060606 0v-518.516364z" p-id="11841"></path></svg>