<?xml version="1.0" standalone="no"?><!DOCTYPE svg PUBLIC "-//W3C//DTD SVG 1.1//EN" "http://www.w3.org/Graphics/SVG/1.1/DTD/svg11.dtd"><svg t="1581945424259" class="icon" viewBox="0 0 1024 1024" version="1.1" xmlns="http://www.w3.org/2000/svg" p-id="10439" xmlns:xlink="http://www.w3.org/1999/xlink" width="200" height="200"><defs><style type="text/css"></style></defs><path d="M512 896a384 384 0 1 1 384-384 384.426667 384.426667 0 0 1-384 384z m0-718.72A334.72 334.72 0 1 0 846.72 512 335.146667 335.146667 0 0 0 512 177.28z m-24.618667 197.973333v273.493334h70.912c43.392 0 76.074667-11.946667 97.962667-35.413334 20.565333-22.912 31.317333-56.874667 31.317333-101.333333 0-45.866667-9.813333-79.829333-28.928-101.845333-20.565333-23.424-52.309333-34.858667-96.128-34.858667h-75.136zM444.842667 341.333333l4.266666-4.266666h119.466667c54.144 0 94.848 15.914667 122.666667 48.341333 25.514667 29.568 38.357333 72.149333 38.357333 126.592 0 53.504-13.824 96.128-41.216 126.72-28.928 32.085333-70.314667 48.213333-123.562667 48.213333h-115.712l-4.266666-4.266666V341.333333zM337.066667 341.333333l4.266666-4.266666h37.802667l4.266667 4.266666v341.333334l-4.266667 4.266666H341.333333l-4.266666-4.266666V341.333333z" p-id="10440"></path></svg>