<?xml version="1.0" standalone="no"?><!DOCTYPE svg PUBLIC "-//W3C//DTD SVG 1.1//EN" "http://www.w3.org/Graphics/SVG/1.1/DTD/svg11.dtd"><svg t="1581852954906" class="icon" viewBox="0 0 1024 1024" version="1.1" xmlns="http://www.w3.org/2000/svg" p-id="5045" xmlns:xlink="http://www.w3.org/1999/xlink" width="200" height="200"><defs><style type="text/css"></style></defs><path d="M827.552 829.905c-174.565 174.561-457.589 174.561-632.155 0-174.561-174.565-174.561-457.589 0-632.155 174.565-174.561 457.589-174.561 632.155 0 174.561 174.566 174.561 457.59 0 632.155z m-87.889-30.42l-58.679-58.679c-100.575 75.202-238.446 75.202-339.021 0L284.3 798.469c133.081 106.304 322.365 107.507 455.363 1.016z m-84.519-429.327c-79.346-79.351-207.993-79.351-287.339 0-79.346 79.346-79.346 207.993 0 287.339 79.346 79.35 207.993 79.35 287.339 0 79.346-79.346 79.346-207.992 0-287.339zM225.817 742.017l58.679-58.679c-75.202-100.575-75.202-238.446 0-339.021l-57.663-57.663c-106.304 133.08-107.507 322.364-1.016 455.363z m58.484-512.83l57.663 57.663c100.575-75.202 238.446-75.202 339.021 0l58.679-58.679c-132.999-106.492-322.283-105.289-455.363 1.016z m512.83 56.452l-58.679 58.679c75.201 100.575 75.201 238.446 0 339.021l57.663 57.663c106.305-133.081 107.508-322.365 1.016-455.363z" p-id="5046"></path></svg>