<?xml version="1.0" encoding="UTF-8"?>
<svg width="120px" height="49px" viewBox="0 0 120 49" version="1.1" xmlns="http://www.w3.org/2000/svg" xmlns:xlink="http://www.w3.org/1999/xlink">
    <!-- Generator: Sketch 51.3 (57544) - http://www.bohemiancoding.com/sketch -->
    <title>定稿logo横版副本</title>
    <desc>Created with Sketch.</desc>
    <defs></defs>
    <g id="Page-1" stroke="none" stroke-width="1" fill="none" fill-rule="evenodd">
        <g id="kube-ovn官网首页1" transform="translate(-272.000000, -4152.000000)">
            <g id="底部" transform="translate(0.000000, 4043.000000)">
                <g id="定稿logo横版副本" transform="translate(272.000000, 109.000000)">
                    <path d="M62.3659016,37.9934426 C55.0898361,34.5114754 44.5036066,40.1665574 44.0970492,40.3868852 C42.2609836,41.3298361 40.8052459,41.6209836 40.2006557,41.1593443 C39.6236066,40.7186885 39.1396721,39.575082 39.1357377,38.2531148 L39.1278689,38.2531148 L39.1357377,38.1377049 C39.1357377,37.9790164 39.1501639,37.8177049 39.1685246,37.655082 L39.6144262,30.8918033 L39.6144262,22.8498361 C39.612822,22.6697637 39.5894838,22.4905435 39.544918,22.3160656 C38.7154509,12.0415014 30.1334148,4.12701545 19.8254241,4.13044425 C9.51743332,4.13387304 0.940664428,12.0540666 0.118032787,22.3291803 C0.0736007925,22.5027925 0.0502629857,22.6811286 0.0485245902,22.8603279 L0.0485245902,35.7219672 C0.0485245902,36.989506 1.07606779,38.0170492 2.34360656,38.0170492 C3.61114533,38.0170492 4.63868852,36.989506 4.63868852,35.7219672 L4.63868852,31.972459 C4.63868852,30.8859972 5.51943984,30.0052459 6.60590164,30.0052459 L6.68852459,30.0052459 C7.77498639,30.0052459 8.6557377,30.8859972 8.6557377,31.972459 L8.6557377,42.3606557 C8.6557377,43.6281945 9.6832809,44.6557377 10.9508197,44.6557377 C12.2183584,44.6557377 13.2459016,43.6281945 13.2459016,42.3606557 L13.2459016,32.104918 C13.2459016,30.9460254 14.1853697,30.0065574 15.3442623,30.0065574 L15.44,30.0065574 C16.5988926,30.0065574 17.5383607,30.9460254 17.5383607,32.104918 L17.5383607,46.295082 C17.5412453,47.561424 18.5671006,48.5872793 19.8334426,48.5901639 C21.0994865,48.5865621 22.1249227,47.5611258 22.1285246,46.295082 L22.1285246,36.7659016 C22.1285246,36.7659016 22.0786885,36.1416393 22.0668852,36.0314754 C22.0600491,35.9669997 22.0565472,35.902214 22.0563934,35.837377 L22.0563934,32.1062295 C22.0563934,30.9473369 22.9958615,30.0078689 24.1547541,30.0078689 L24.2491803,30.0078689 C25.4080729,30.0078689 26.347541,30.9473369 26.347541,32.1062295 L26.347541,35.837377 C26.3471738,35.9079512 26.3427952,35.9784474 26.3344262,36.0485246 C26.3239344,36.1429508 26.2832787,36.9088525 26.2832787,36.9088525 L26.2832787,42.3606557 C26.2832787,43.6281945 27.3108219,44.6557377 28.5783607,44.6557377 C29.8458994,44.6557377 30.8734426,43.6281945 30.8734426,42.3606557 L30.8734426,37.2354098 C30.8734426,37.2354098 30.7960656,36.0236066 30.7960656,35.837377 L30.7960656,32.1062295 C30.7960656,30.9473369 31.7355336,30.0078689 32.8944262,30.0078689 L32.9888525,30.0078689 C34.147745,30.0078689 35.0872131,30.9473369 35.0872131,32.1062295 L35.0872131,35.7783607 L35.0754098,35.9632787 C35.0754098,35.997377 35.067541,36.0327869 35.064918,36.0668852 C35.0643038,36.0707957 35.0643038,36.0747781 35.064918,36.0786885 C34.8970492,38.88 35.2091803,42.6085246 37.6655738,44.4839344 C38.6137325,45.2031315 39.7767271,45.5815553 40.9665574,45.5580328 C42.4424044,45.5580328 44.1363934,45.067541 46.0485246,44.0865574 C48.5744262,42.717377 56.1062295,39.627541 60.562623,41.7665574 C61.2378329,42.1045534 62.0428805,42.0519049 62.6683192,41.6288491 C63.2937579,41.2057932 63.6422452,40.4781738 63.5798288,39.7256753 C63.5174123,38.9731768 63.0538064,38.312917 62.3672131,37.9986885 L62.3659016,37.9934426 Z" id="Shape" fill="#3BAEE4" fill-rule="nonzero"></path>
                    <path d="M13.5357377,17.7718033 C13.1567213,20.6977049 16.3436066,22.7081967 19.0059016,22.1101639 C22.0708197,21.4229508 22.5993443,16.8642623 20.3790164,15.0006557 C18.7016393,13.5960656 16.3304918,13.652459 14.8170492,15.2708197 C14.0301639,16.1036066 13.6367213,16.9586885 13.5357377,17.7718033 Z" id="Shape" fill="#FFFFFF"></path>
                    <path d="M17.442623,19.7914754 C18.1613115,19.922623 18.6767213,18.9796721 18.1455738,18.4485246 C17.7206557,18.0236066 16.9744262,18.0668852 16.8340984,18.6636066 C16.7147541,19.1606557 16.8878689,19.6944262 17.4465574,19.7914754 L17.442623,19.7914754 Z" id="Shape" fill="#000000" fill-rule="nonzero"></path>
                    <path d="M23.2786885,18.4314754 C22.9770492,20.7645902 25.5186885,22.3659016 27.6432787,21.892459 C30.0891803,21.3442623 30.5101639,17.704918 28.7396721,16.2203279 C27.4006557,15.0990164 25.5095082,15.1436066 24.3016393,16.4354098 C23.6786885,17.0990164 23.362623,17.7822951 23.2786885,18.4314754 Z" id="Shape" fill="#FFFFFF"></path>
                    <path d="M25.9842623,19.704918 C26.557377,19.8059016 26.9691803,19.0570492 26.5455738,18.6334426 C26.2059016,18.2937705 25.6104918,18.3291803 25.4963934,18.8052459 C25.4006557,19.1986885 25.5383607,19.627541 25.9842623,19.704918 Z" id="Shape" fill="#000000" fill-rule="nonzero"></path>
                    <rect id="Rectangle-path" fill="#3BAEE4" fill-rule="nonzero" x="18.0222951" y="1.79278689" width="1.92393443" height="4.67278689" rx="0.961967213"></rect>
                    <circle id="Oval" fill="#3BAEE4" fill-rule="nonzero" cx="18.9836066" cy="1.67344262" r="1.65770492"></circle>
                    <path d="M86.7527869,29.4085246 C86.7527869,29.387541 86.7527869,29.3678689 86.7527869,29.3468852 C86.7527869,29.3259016 86.7527869,29.3363934 86.7527869,29.3311475 L86.7527869,29.3219672 C86.7521551,29.3167403 86.7521551,29.3114564 86.7527869,29.3062295 C86.7081105,28.8339055 86.3663939,28.4430704 85.9042623,28.3357377 C85.8848628,28.3305452 85.8651502,28.3266026 85.8452459,28.3239344 C85.7644412,28.308737 85.6820844,28.303452 85.6,28.3081967 L80.7842623,28.5704918 C80.3920901,28.591342 80.0408315,28.8198298 79.8628022,29.1698861 C79.684773,29.5199423 79.7070199,29.938385 79.9211629,30.267591 C80.1353059,30.596797 80.5088114,30.7867519 80.9009836,30.7659016 L85.7180328,30.5036066 C86.285419,30.4715366 86.7353012,30.0131339 86.7567213,29.4452459 C86.7560716,29.4329436 86.7547582,29.4206853 86.7527869,29.4085246 Z" id="Shape" fill="#FFFFFF" fill-rule="nonzero"></path>
                    <path d="M70.24,28.2688525 C70.1571823,27.6936193 69.9643835,27.1397121 69.6721311,26.637377 C69.4817943,26.3188855 69.2222788,26.0472683 68.9127869,25.842623 C68.6108277,25.641617 68.2735098,25.4996586 67.9186885,25.4242623 C67.5602979,25.3477913 67.1922638,25.3270009 66.827541,25.362623 C66.4644285,25.3951423 66.1095699,25.4896234 65.7783607,25.6419672 C65.6616393,25.7009836 65.5488525,25.7560656 65.4386885,25.8072131 C65.3285246,25.8583607 65.2196721,25.9160656 65.1147541,25.9737705 C65.1383607,25.4622951 65.1527869,25.0308197 65.1593443,24.6819672 C65.1659016,24.3331148 65.1593443,24.0262295 65.1593443,23.7639344 C65.1593443,23.6590164 65.1527869,23.5593443 65.1462295,23.464918 L65.1462295,22.5101639 C65.1462295,21.8872592 64.6412654,21.3822951 64.0183607,21.3822951 C63.3954559,21.3822951 62.8904918,21.8872592 62.8904918,22.5101639 L62.8904918,23.5055738 C62.8747541,25.5016393 62.8393443,30.2413115 62.882623,30.587541 C62.884723,30.6001382 62.8882427,30.6124571 62.8931148,30.6242623 C62.9665574,31.76 63.5068852,33.9029508 66.6059016,33.4806557 L66.6295082,33.4806557 C66.7606557,33.464918 66.8918033,33.4439344 67.0229508,33.4190164 C67.32393,33.378834 67.6176144,33.2958074 67.895082,33.172459 C68.0393443,33.12 68.1822951,33.0609836 68.322623,32.9954098 C68.8683639,32.7517477 69.323542,32.3424545 69.6236066,31.8255738 C69.9323163,31.3005656 70.1396289,30.7222257 70.2347541,30.1206557 C70.3350018,29.5075974 70.3367727,28.882469 70.24,28.2688525 Z M66.8852459,31.3101639 C65.9921311,31.3101639 65.2681967,30.4314754 65.2681967,29.3429508 C65.2681967,28.2544262 65.9921311,27.3757377 66.8852459,27.3757377 C67.7783607,27.3757377 68.5009836,28.2544262 68.5009836,29.3429508 C68.5009836,30.4314754 67.7822951,31.3101639 66.8852459,31.3101639 Z" id="Shape" fill="#FFFFFF" fill-rule="nonzero"></path>
                    <path d="M78.9731148,30.9731148 C78.6993406,30.5673561 78.1762411,30.4127915 77.7259016,30.6045902 C77.6687421,30.6289247 77.6138779,30.6583319 77.5619672,30.692459 L77.4754098,30.7514754 C77.1195171,30.9611208 76.7526531,31.1515574 76.3763934,31.3219672 C76.0998257,31.4258787 75.8126161,31.4988906 75.52,31.5396721 C75.1914694,31.5875741 74.8568421,31.5728897 74.5337705,31.4963934 C74.2049579,31.4124332 73.9114294,31.2259347 73.6957377,30.9639344 C74.0568306,30.8485246 74.4319126,30.7440437 74.8209836,30.6504918 C75.2081588,30.5579196 75.5899395,30.4440859 75.9645902,30.3095082 C76.3351352,30.1763509 76.696564,30.0190746 77.0465574,29.8386885 C77.4010905,29.6539674 77.7249186,29.4155201 78.0065574,29.1318033 C78.291218,28.8611431 78.4888967,28.5118955 78.5744262,28.1285246 C78.6497431,27.7676343 78.6407671,27.3942316 78.5481967,27.037377 C78.4505787,26.6693672 78.2747833,26.3267227 78.0327869,26.0327869 C77.7907314,25.7321646 77.4835492,25.4904549 77.1344262,25.3259016 C76.6819061,25.1234525 76.186214,25.0364811 75.6918033,25.0727869 C75.5291803,25.0819672 75.3678689,25.0990164 75.2065574,25.122623 C72.7737705,25.3744262 71.8413115,26.7593443 71.4819672,27.8019672 C71.4053741,28.0249673 71.3474694,28.2539541 71.3088525,28.4865574 C71.1409836,29.357377 71.0360656,30.8813115 71.9777049,31.9986885 C72.2688108,32.4126957 72.632228,32.7707816 73.0504918,33.0557377 C73.430598,33.3079906 73.8580742,33.4802305 74.3068852,33.5619672 C74.7842881,33.643682 75.2721053,33.643682 75.7495082,33.5619672 C76.3034157,33.4692085 76.8471201,33.3234009 77.3731148,33.1265574 C77.630655,33.03372 77.8813309,32.9228441 78.1232787,32.7947541 L78.2334426,32.7318033 C78.7895082,32.4144262 78.8996721,32.215082 78.8996721,32.215082 C79.2029141,31.865629 79.2330582,31.3558712 78.9731148,30.9731148 Z M74.824918,27.0557377 C75.4806557,26.775082 76.1586885,26.9036066 76.347541,27.3416393 C76.5363934,27.7796721 76.1586885,28.3632787 75.5068852,28.642623 C74.855082,28.9219672 74.1718033,28.7960656 73.9829508,28.3580328 C73.7940984,27.92 74.1718033,27.3363934 74.824918,27.0557377 Z" id="Shape" fill="#FFFFFF" fill-rule="nonzero"></path>
                    <path d="M59.1554098,32.7659016 C59.1554098,32.7659016 60.0262295,33.9803279 61.4321311,32.7422951 L61.8045902,32.3698361 C62.1221506,32.0271505 62.1316926,31.5006251 61.8267572,31.1466583 C61.5218219,30.7926915 60.9996833,30.7241984 60.6137705,30.987541 C60.587541,30.9180328 60.562623,30.8472131 60.5416393,30.7737705 C60.4410174,30.4313471 60.373818,30.0799779 60.3409836,29.7245902 C60.3056118,29.3650916 60.2937833,29.003665 60.3055738,28.642623 C60.3178142,28.2824044 60.3353005,27.939235 60.3580328,27.6131148 C60.3698361,27.4386885 60.3895082,27.2498361 60.4183607,27.0452459 C60.4473617,26.8458884 60.4622621,26.6447334 60.4629508,26.4432787 C60.4638322,26.2535405 60.434163,26.0648976 60.375082,25.8845902 C60.375082,25.8780328 60.3685246,25.8701639 60.3659016,25.8622951 C60.2671596,25.3074778 59.757314,24.9226529 59.1966819,24.979783 C58.6360497,25.0369131 58.2143076,25.5166695 58.2295082,26.08 L58.2295082,26.7540984 C58.2295082,26.7790164 58.2295082,26.8039344 58.2295082,26.8288525 L58.2295082,29.095082 C58.237377,29.5698361 58.237377,30.0681967 58.2111475,30.3645902 C57.9980249,31.0237163 57.3365432,31.4293707 56.6524304,31.3204751 C55.9683176,31.2115796 55.4654793,30.6205912 55.467541,29.9278689 L55.467541,28.9836066 C55.467541,28.8340984 55.467541,28.6832787 55.467541,28.5311475 L55.467541,28.477377 C55.467541,28.4668852 55.467541,28.4577049 55.467541,28.4472131 C55.467541,28.267541 55.4819672,28.0878689 55.4977049,27.9068852 C55.5497789,27.3090421 55.564671,26.7085419 55.5422951,26.1088525 C55.5422951,26.0865574 55.5357377,26.0655738 55.5331148,26.0445902 C55.5182664,25.4651439 55.0364955,25.0074468 54.4570492,25.0222951 C53.8776029,25.0371434 53.4199058,25.5189144 53.4347541,26.0983607 L53.4347541,26.2177049 C53.4169766,26.3524897 53.408214,26.4883106 53.4085246,26.6242623 C53.4085246,26.7698361 53.4019672,26.9180328 53.3914754,27.0688525 C53.3796721,27.2668852 53.3678689,27.4557377 53.3560656,27.6367213 C53.3442623,27.8177049 53.3390164,28 53.3390164,28.1862295 C53.326776,28.7213115 53.3355191,29.2856831 53.3652459,29.8793443 C53.3863383,30.445445 53.5323365,30.9998798 53.7927869,31.5029508 C54.0406829,31.9889314 54.3921003,32.4146613 54.8222951,32.7501639 C55.2057506,33.048273 55.6557608,33.2489776 56.1337705,33.335082 C56.6089917,33.4160016 57.0966228,33.3831933 57.5567213,33.2393443 C58.0658244,33.0782479 58.5382055,32.8184383 58.9468852,32.4747541 L59.1554098,32.7659016 Z" id="Shape" fill="#FFFFFF" fill-rule="nonzero"></path>
                    <path d="M98.532459,25.8727869 C98.467845,25.4290013 98.337913,24.9972205 98.1468852,24.5914754 C97.9559838,24.1798492 97.7024881,23.8002692 97.3954098,23.4662295 C97.1744009,23.2184656 96.9242848,22.998293 96.6504918,22.8104918 C96.3748228,22.6264283 96.0854506,22.4637661 95.784918,22.3239344 C95.4065456,22.1483491 95.005165,22.027361 94.5927869,21.9645902 C94.1823526,21.9020526 93.7661961,21.8857759 93.3521311,21.9160656 C92.5744984,21.9835866 91.8237186,22.2333972 91.1606557,22.6452459 C90.5078985,23.0504373 89.9349349,23.5718386 89.4701639,24.1836066 C88.998079,24.8077541 88.6296416,25.5038881 88.3790164,26.2452459 C88.1241325,26.9776077 87.9856208,27.7453962 87.9685246,28.5206557 C87.9640287,28.9732346 88.0000191,29.4253087 88.0760656,29.8714754 C88.1517058,30.335954 88.2884088,30.788397 88.482623,31.2170492 C88.671062,31.6391143 88.9271032,32.0276059 89.2406557,32.3672131 C89.5630626,32.7138979 89.9599024,32.9829419 90.4013115,33.1540984 C90.6528041,33.3050842 90.9202215,33.4277971 91.1986885,33.52 C91.5726579,33.6312505 91.9551522,33.7115217 92.3422951,33.76 C93.0367263,33.8389059 93.7399423,33.748923 94.3921311,33.4977049 C95.0005812,33.2555173 95.5600284,32.9049186 96.0432787,32.4629508 C96.5394216,32.0076189 96.9697793,31.4854516 97.3219672,30.9114754 C97.5905716,30.4790836 97.8323391,30.0305874 98.0459016,29.5685246 L98.3540984,28.6793443 C98.4415301,28.286776 98.507541,27.8933333 98.5521311,27.4990164 C98.613082,26.9582238 98.6064738,26.4119468 98.532459,25.8727869 Z M95.7219672,28.5455738 C95.197377,30.1547541 93.6878689,31.1055738 92.3396721,30.6701639 C90.9914754,30.2347541 90.32,28.5718033 90.8393443,26.9665574 C91.3586885,25.3613115 92.8747541,24.4065574 94.2229508,24.8419672 C95.5711475,25.277377 96.242623,26.9363934 95.7219672,28.5455738 Z" id="Shape" fill="#FFFFFF" fill-rule="nonzero"></path>
                    <path d="M108.624262,21.9318033 C108.380309,21.8186025 108.10134,21.807113 107.848904,21.8998698 C107.596468,21.9926266 107.391308,22.182007 107.278689,22.4262295 L104.238689,28.9836066 L101.707541,22.7095082 C101.499302,22.1927146 100.911548,21.9425813 100.394754,22.1508198 C99.8779605,22.3590583 99.6278271,22.9468129 99.8360656,23.4636066 L102.281967,29.5265574 L103.302295,32.2308197 C103.315867,32.2789671 103.333414,32.3259043 103.354754,32.3711475 C103.512584,32.7053911 103.848079,32.9195368 104.217705,32.9219672 L104.287213,32.9219672 C104.385537,32.9181571 104.482567,32.8982194 104.574426,32.8629508 C104.65507,32.8318342 104.729973,32.7875128 104.796066,32.7318033 C104.951913,32.6133051 105.068451,32.4506089 105.130492,32.264918 C105.15541,32.212459 105.179016,32.157377 105.201311,32.1009836 L107.871475,25.9370492 L109.114754,23.2721311 C109.347508,22.7664852 109.128412,22.1677798 108.624262,21.9318033 Z" id="Shape" fill="#FFFFFF" fill-rule="nonzero"></path>
                    <path d="M118.775082,21.1593443 L118.726557,21.1593443 C118.105139,21.1453867 117.589018,21.635731 117.571148,22.2570492 L117.403279,28.8904918 C117.154098,28.5302732 116.899235,28.1691803 116.638689,27.8072131 L116.544262,27.6760656 L116.268852,27.3311475 L112.42623,22.0577049 C112.11916,21.6792854 111.606937,21.5354616 111.14777,21.6987343 C110.688602,21.862007 110.382173,22.2969305 110.382951,22.7842623 L110.382951,33.117377 C110.403912,33.7385573 110.913548,34.2312869 111.535082,34.2312869 C112.156616,34.2312869 112.666252,33.7385573 112.687213,33.117377 L112.687213,26.4288525 L114.123279,28.4327869 L117.471475,33.3967213 C117.668605,33.7260119 118.020292,33.9317807 118.403934,33.9422951 L118.452459,33.9422951 C119.074375,33.9562435 119.590705,33.465114 119.607869,32.8432787 L119.664262,30.5757377 C119.704481,29.619235 119.737268,28.6644809 119.762623,27.7114754 C119.780984,26.9140984 119.79235,26.1162842 119.796721,25.3180328 L119.872787,22.3160656 C119.888204,21.6938611 119.397241,21.1765023 118.775082,21.1593443 Z" id="Shape" fill="#FFFFFF" fill-rule="nonzero"></path>
                    <path d="M52.1180328,31.5632787 C51.2393443,30.4734426 49.6065574,28.9232787 49.495082,28.8157377 C49.3836066,28.7081967 49.2668852,28.5731148 49.1554098,28.452459 L48.2990164,27.5278689 C48.7068852,27.1501639 48.9796721,26.8813115 48.9796721,26.8813115 C49.224918,26.6609836 49.4622951,26.4301639 49.6957377,26.1914754 C49.9291803,25.9527869 50.1495082,25.7088525 50.3593443,25.4583607 C50.4039344,25.4045902 50.4485246,25.3508197 50.4904918,25.2970492 C51.4583607,24.2268852 51.5934426,23.7232787 51.5934426,23.7232787 C51.8251258,23.2934519 51.7296572,22.7606151 51.3631527,22.4379658 C50.9966482,22.1153165 50.4560079,22.0881601 50.0590164,22.372459 L46.0642623,26.2295082 C46.0642623,25.7390164 46.0642623,25.2537705 46.08,24.7763934 C46.08,24.6898361 46.08,24.6019672 46.08,24.5140984 C46.08,24.482623 46.08,24.4511475 46.08,24.4196721 L46.08,22.8459016 C46.08,22.2570393 45.6026328,21.7796721 45.0137705,21.7796721 C44.4249082,21.7796721 43.947541,22.2570393 43.947541,22.8459016 L43.947541,24.4196721 C43.947541,24.4485246 43.947541,24.4760656 43.947541,24.5036066 C43.9422951,24.8725683 43.9422951,25.210929 43.947541,25.5186885 C43.947541,25.8321311 43.9567213,26.0065574 43.9567213,26.0432787 L43.9567213,29.6918033 C43.9567213,29.7613115 43.9567213,29.9540984 43.947541,30.2583607 C43.9383607,30.562623 43.947541,30.9022951 43.9567213,31.2629508 C43.9567213,31.3718033 43.9645902,31.4767213 43.9698361,31.5829508 L44.0052459,32.9481967 L44.0052459,32.9731148 C44.0046286,32.9814093 44.0046286,32.9897382 44.0052459,32.9980328 L44.0052459,33.0413115 C44.0457414,33.57395 44.4799631,33.9911303 45.0137954,34.0102797 C45.5476278,34.0294292 46.0106248,33.6444336 46.0891803,33.1160656 L46.0891803,31.922623 C46.0725683,31.459235 46.0594536,30.9975956 46.0498361,30.5377049 C46.0419672,30.162623 46.0380328,29.7862295 46.0354098,29.4085246 C46.2465574,29.2616393 46.4708197,29.0911475 46.6977049,28.9088525 L48.0393443,30.3370492 C48.5744262,30.9079781 49.1156284,31.4898361 49.6629508,32.082623 C49.7206557,32.1416393 49.7940984,32.2137705 49.8727869,32.3186885 L50.1245902,32.6242623 C50.212459,32.7291803 50.3055738,32.8301639 50.4039344,32.9298361 C50.4942557,33.0202507 50.5906555,33.1043815 50.692459,33.1816393 C50.8735379,33.3245356 51.0992836,33.3988552 51.3298361,33.3914754 C51.4385123,33.3862008 51.545651,33.363622 51.6472131,33.3245902 C51.8183594,33.2772773 51.9745642,33.1869855 52.1009836,33.0622951 C52.519112,32.6528382 52.5267402,31.9821396 52.1180328,31.5632787 Z" id="Shape" fill="#FFFFFF" fill-rule="nonzero"></path>
                </g>
            </g>
        </g>
    </g>
</svg>