<?xml version="1.0" standalone="no"?><!DOCTYPE svg PUBLIC "-//W3C//DTD SVG 1.1//EN" "http://www.w3.org/Graphics/SVG/1.1/DTD/svg11.dtd"><svg t="1582013052275" class="icon" viewBox="0 0 1024 1024" version="1.1" xmlns="http://www.w3.org/2000/svg" p-id="8546" xmlns:xlink="http://www.w3.org/1999/xlink" width="200" height="200"><defs><style type="text/css"></style></defs><path d="M808 789.995l-21.952-32.896 65.813-38.4V323.904L654.443 208.747l19.2-32.918L890.24 301.973v438.699L808 790.016zM166.379 562.432H128v-257.75L517.333 85.334l87.766 49.344-19.2 35.648-68.544-41.13-350.976 197.418v235.819zM509.12 960L128 743.381V636.46h38.4v84.992L509.12 916.14 731.2 789.995l19.2 32.917L509.141 960z m-24.683-619.67l-84.992-49.365v-30.144l112.427-65.813 109.653 65.813v30.144l-82.24 49.366-2.752 30.165-24.661-16.448-27.435 16.427V340.33z m172.758 197.42v-98.71l-85.014-49.365V359.53l109.675-63.062 112.427 63.062v128.853l-112.427 63.083-24.661-13.718z m-257.75 246.762V658.389l24.683-16.448 84.992 49.344 87.744-49.344 24.683 13.718v128.853L509.12 850.325l-109.653-65.813z m257.75-49.344v-98.71l-27.435-16.447 27.435-13.718v-30.165l24.661 16.448 85.013-49.344 27.414 13.717v128.854l-112.427 63.061-24.661-13.696z m-257.75-148.053V458.24l112.427-63.061 109.653 63.061v128.853L509.12 650.155l-109.653-63.062z m-175.488 98.688l2.752-128.854 24.683-13.717 84.992 49.344 27.413-16.427v30.144l27.435 16.448-27.435 13.718v98.709l-27.413 13.696-112.427-63.061z m0-197.419l2.752-128.853 112.427-63.062 109.653 63.062v30.144l-84.992 49.365v95.957l-27.413 16.47-112.427-63.083z" fill="#00C1DE" p-id="8547"></path></svg>