<?xml version="1.0" standalone="no"?><!DOCTYPE svg PUBLIC "-//W3C//DTD SVG 1.1//EN" "http://www.w3.org/Graphics/SVG/1.1/DTD/svg11.dtd"><svg t="1581945211489" class="icon" viewBox="0 0 1024 1024" version="1.1" xmlns="http://www.w3.org/2000/svg" p-id="8475" xmlns:xlink="http://www.w3.org/1999/xlink" width="200" height="200"><defs><style type="text/css"></style></defs><path d="M734.506667 560.426667l148.778666-46.506667a42.666667 42.666667 0 0 1 25.429334 81.493333l-148.778667 46.506667 48.768 156.032a42.666667 42.666667 0 0 1-81.408 25.429333L585.898667 370.944l-214.954667 67.157333 67.157333 214.954667 117.205334-36.608a42.666667 42.666667 0 1 1 25.472 81.408l-117.205334 36.650667 46.506667 148.778666a42.666667 42.666667 0 0 1-81.493333 25.429334l-46.506667-148.778667-156.032 48.768a42.666667 42.666667 0 0 1-25.429333-81.408l156.032-48.768-67.157334-214.954667-148.778666 46.506667a42.666667 42.666667 0 0 1-25.429334-81.493333l148.778667-46.506667-48.768-156.032a42.666667 42.666667 0 1 1 81.408-25.429333l48.768 156.032 214.954667-67.157334-46.506667-148.778666a42.666667 42.666667 0 0 1 81.493333-25.429334l46.506667 148.778667 156.032-48.768a42.666667 42.666667 0 0 1 25.429333 81.408l-156.032 48.768 67.157334 214.954667z" p-id="8476"></path></svg>