<?xml version="1.0" standalone="no"?><!DOCTYPE svg PUBLIC "-//W3C//DTD SVG 1.1//EN" "http://www.w3.org/Graphics/SVG/1.1/DTD/svg11.dtd"><svg t="1581766031230" class="icon" viewBox="0 0 1024 1024" version="1.1" xmlns="http://www.w3.org/2000/svg" p-id="11699" xmlns:xlink="http://www.w3.org/1999/xlink" width="200" height="200"><defs><style type="text/css"></style></defs><path d="M901.122 881.08H139.148V249.835H187.7c13.41 0 24.28-10.87 24.28-24.28 0-13.41-10.869-24.28-24.28-24.28h-72.832c-13.41 0-24.28 10.869-24.28 24.28v679.8c0 13.411 10.87 24.282 24.28 24.282h786.255c13.41 0 24.28-10.87 24.28-24.281 0-13.409-10.87-24.276-24.28-24.276zM350.182 251.7h313.76c14.435 0 26.143-11.705 26.143-26.146 0-14.44-11.707-26.146-26.142-26.146h-313.76c-14.435 0-26.147 11.707-26.147 26.146 0 14.441 11.71 26.147 26.147 26.147z m549.074-52.292c14.439 0 26.146 11.707 26.146 26.146V903.49c0 14.44-11.707 26.147-26.146 26.147-14.44 0-26.147-11.707-26.147-26.147V251.7h-52.293c-14.435 0-26.146-11.705-26.146-26.146 0-14.44 11.71-26.146 26.146-26.146h78.44zM271.742 330.14c14.44 0 26.147-11.706 26.147-26.146v-156.88c0-14.44-11.707-26.146-26.147-26.146-14.435 0-26.146 11.707-26.146 26.147v156.879c0 14.44 11.711 26.146 26.146 26.146z m470.635 0c14.439 0 26.146-11.706 26.146-26.146v-156.88c0-14.44-11.706-26.146-26.146-26.146-14.436 0-26.147 11.707-26.147 26.147v156.879c0 14.44 11.711 26.146 26.147 26.146z m-375.872 82.123c-13.19 0-23.886 10.693-23.886 23.886v334.482c0 13.19 10.697 23.886 23.886 23.886 13.197 0 23.893-10.696 23.893-23.886V436.15c0-13.193-10.696-23.886-23.893-23.886z m215.023 0h-95.563c-13.197 0-23.893 10.693-23.893 23.886v334.482c0 13.19 10.696 23.886 23.893 23.886 13.194 0 23.89-10.696 23.89-23.886V651.175h71.673c65.976 0 119.455-53.486 119.455-119.456 0-65.977-53.479-119.456-119.455-119.456z m0 191.125h-71.673V460.043h71.673c39.586 0 71.672 32.09 71.672 71.676 0 39.58-32.086 71.67-71.672 71.67z" p-id="11700"></path></svg>