<?xml version="1.0" standalone="no"?><!DOCTYPE svg PUBLIC "-//W3C//DTD SVG 1.1//EN" "http://www.w3.org/Graphics/SVG/1.1/DTD/svg11.dtd"><svg t="1581944915579" class="icon" viewBox="0 0 1024 1024" version="1.1" xmlns="http://www.w3.org/2000/svg" p-id="7148" xmlns:xlink="http://www.w3.org/1999/xlink" width="200" height="200"><defs><style type="text/css"></style></defs><path d="M853.32992 102.4H170.67008C133.13024 102.4 102.4 133.13024 102.4 170.67008v682.67008C102.4 890.86976 133.13024 921.6 170.67008 921.6h682.65984C890.86976 921.6 921.6 890.86976 921.6 853.32992V170.67008C921.6 133.13024 890.86976 102.4 853.32992 102.4z m0 750.92992H170.67008V170.67008h682.65984v682.65984z" p-id="7149"></path><path d="M668.5696 695.76704A71.3728 71.3728 0 0 1 617.8304 716.8c-39.5264 0-71.70048-32.17408-71.70048-71.70048V443.72992h136.54016v-68.27008H546.12992V238.92992h-68.25984v136.52992h-102.4v68.27008h102.4v201.3696c0 77.27104 62.65856 139.97056 139.96032 139.97056 38.66624 0 73.63584-15.69792 98.9696-41.00096l-48.2304-48.30208z" p-id="7150"></path></svg>