<?xml version="1.0" standalone="no"?><!DOCTYPE svg PUBLIC "-//W3C//DTD SVG 1.1//EN" "http://www.w3.org/Graphics/SVG/1.1/DTD/svg11.dtd"><svg t="1581870073860" class="icon" viewBox="0 0 1024 1024" version="1.1" xmlns="http://www.w3.org/2000/svg" p-id="2425" xmlns:xlink="http://www.w3.org/1999/xlink" width="200" height="200"><defs><style type="text/css"></style></defs><path d="M295.901 526.09c-40.64-33.009-66.64-83.58-66.64-140.27 0-99.455 80.024-180.08 178.739-180.08s178.738 80.625 178.738 180.08c0 56.69-25.999 107.261-66.64 140.27C627.995 570.604 704 677.451 704 802.184c0 12.032-0.707 23.898-2.082 35.557h-64.336a237.55 237.55 0 0 0 2.664-35.557c0-129.229-103.98-233.99-232.246-233.99-128.266 0-232.246 104.761-232.246 233.99 0 12.088 0.91 23.962 2.664 35.557h-64.336A303.534 303.534 0 0 1 112 802.184c0-124.733 76.006-231.58 183.901-276.094zM408 501.668c63.504 0 114.985-51.866 114.985-115.847 0-63.981-51.48-115.848-114.985-115.848-63.504 0-114.985 51.867-114.985 115.848 0 63.98 51.48 115.847 114.985 115.847zM615.759 187c98.652 0 178.626 80.64 178.626 180.116 0 56.7-25.983 107.281-66.598 140.297 107.827 44.523 183.785 151.392 183.785 276.149 0 12.034-0.706 23.902-2.08 35.564h-64.296a237.79 237.79 0 0 0 2.663-35.564c0-129.255-103.915-234.036-232.1-234.036h0.76c-18.375 0-33.27-14.895-33.27-33.27 0-18.374 14.895-33.27 33.27-33.27h-0.76c63.464 0 114.912-51.877 114.912-115.87 0-63.994-51.448-115.87-114.912-115.87-4.44 0-9.626 0.533-15.557 1.602-15.46 2.785-30.252-7.491-33.037-22.953a28.445 28.445 0 0 1-0.301-2.133c-1.997-19.42 11.83-36.901 31.189-39.43 6.803-0.888 12.705-1.332 17.706-1.332z" p-id="2426"></path></svg>