<?xml version="1.0" standalone="no"?><!DOCTYPE svg PUBLIC "-//W3C//DTD SVG 1.1//EN" "http://www.w3.org/Graphics/SVG/1.1/DTD/svg11.dtd"><svg t="1581848666282" class="icon" viewBox="0 0 1024 1024" version="1.1" xmlns="http://www.w3.org/2000/svg" p-id="2884" xmlns:xlink="http://www.w3.org/1999/xlink" width="200" height="200"><defs><style type="text/css"></style></defs><path d="M96.2 469.9h50v50h-50v-50z m167.7-258.4l-35.4-35.4-35.4 35.4 35.4 35.4 35.4-35.4zM537 69.1h-50v50h50v-50z m340.8 400.8v50h50v-50h-50zM827 486.1c0 135.4-118.3 225.5-185 339.8v128.9H382V825.9c-69-112-185-203.2-185-339.8 0-180.2 138.3-326.2 315-326.2S827 306 827 486.1zM592 848.5H432v56.3h160v-56.3z m164.3-470.6c-13.3-33-32.3-62.5-56.6-87.8-49.6-51.7-116.3-80.2-187.7-80.2s-138.1 28.5-187.7 80.2c-24.2 25.3-43.3 54.8-56.6 87.8C254 412 247 448.5 247 486.1c0 35.1 9.5 69 30 106.6 19.7 36.2 46.7 70.7 75.3 107.2 24.5 31.3 49.9 63.7 71.5 98.6H487V601.9h-55v-50h160v50h-55v196.7h63.2c22.4-37.9 49.3-72.6 75.3-106.1 27.6-35.6 53.7-69.2 72.7-104.1 19.6-36.1 28.8-68.6 28.8-102.2 0-37.7-7-74.2-20.7-108.3z m3.8-166.4l35.4 35.4 35.4-35.4-35.4-35.4-35.4 35.4z" fill="" p-id="2885"></path></svg>