<?xml version="1.0" standalone="no"?><!DOCTYPE svg PUBLIC "-//W3C//DTD SVG 1.1//EN" "http://www.w3.org/Graphics/SVG/1.1/DTD/svg11.dtd"><svg t="1581925669149" class="icon" viewBox="0 0 1024 1024" version="1.1" xmlns="http://www.w3.org/2000/svg" p-id="4293" xmlns:xlink="http://www.w3.org/1999/xlink" width="200" height="200"><defs><style type="text/css"></style></defs><path d="M426.666667 213.333333c-211.2 0-384 172.8-384 384s172.8 384 384 384c211.2 0 384-172.8 384-384S637.866667 213.333333 426.666667 213.333333zM309.333333 277.333333c-19.2 23.466667-36.266667 53.333333-51.2 87.466667-17.066667-8.533333-32-19.2-46.933333-32C241.066667 309.333333 273.066667 290.133333 309.333333 277.333333zM179.2 362.666667c17.066667 17.066667 38.4 29.866667 61.866667 42.666667-17.066667 51.2-25.6 108.8-27.733333 170.666667l-128 0C91.733333 492.8 125.866667 418.133333 179.2 362.666667zM87.466667 618.666667l128 0c2.133333 61.866667 12.8 119.466667 27.733333 170.666667-23.466667 12.8-44.8 25.6-61.866667 42.666667C125.866667 776.533333 91.733333 701.866667 87.466667 618.666667zM211.2 861.866667c12.8-10.666667 29.866667-21.333333 46.933333-32 14.933333 34.133333 32 64 51.2 87.466667C273.066667 904.533333 241.066667 885.333333 211.2 861.866667zM405.333333 934.4c-44.8-10.666667-83.2-57.6-110.933333-123.733333 34.133333-12.8 70.4-19.2 110.933333-21.333333L405.333333 934.4zM405.333333 746.666667c-44.8 2.133333-87.466667 10.666667-123.733333 25.6-12.8-44.8-21.333333-98.133333-23.466667-153.6l149.333333 0L407.466667 746.666667zM405.333333 576l-149.333333 0c2.133333-55.466667 10.666667-108.8 23.466667-153.6 38.4 14.933333 78.933333 23.466667 123.733333 25.6L403.2 576zM405.333333 405.333333c-40.533333-2.133333-76.8-10.666667-110.933333-21.333333 27.733333-66.133333 66.133333-110.933333 110.933333-123.733333L405.333333 405.333333zM642.133333 332.8c-12.8 10.666667-29.866667 21.333333-46.933333 32-14.933333-34.133333-32-64-51.2-87.466667C580.266667 290.133333 612.266667 309.333333 642.133333 332.8zM448 260.266667c44.8 10.666667 83.2 57.6 110.933333 123.733333-34.133333 12.8-70.4 19.2-110.933333 21.333333L448 260.266667zM448 448c44.8-2.133333 87.466667-10.666667 123.733333-25.6 12.8 44.8 21.333333 98.133333 23.466667 153.6l-149.333333 0L445.866667 448zM448 618.666667l149.333333 0c-2.133333 55.466667-10.666667 108.8-23.466667 153.6-38.4-14.933333-78.933333-23.466667-123.733333-25.6L450.133333 618.666667zM448 934.4 448 789.333333c40.533333 2.133333 76.8 10.666667 110.933333 21.333333C531.2 878.933333 492.8 923.733333 448 934.4zM544 917.333333c19.2-23.466667 36.266667-53.333333 51.2-87.466667 17.066667 8.533333 32 19.2 46.933333 32C612.266667 885.333333 580.266667 904.533333 544 917.333333zM674.133333 832c-17.066667-17.066667-38.4-29.866667-61.866667-42.666667 17.066667-51.2 25.6-108.8 27.733333-170.666667l128 0C761.6 701.866667 727.466667 776.533333 674.133333 832zM640 576c-2.133333-61.866667-12.8-119.466667-27.733333-170.666667 23.466667-12.8 44.8-25.6 61.866667-42.666667 53.333333 55.466667 89.6 130.133333 93.866667 213.333333L640 576zM597.333333 42.666667c-123.733333 0-232.533333 57.6-302.933333 149.333333 32-10.666667 66.133333-17.066667 100.266667-19.2-4.266667-2.133333-8.533333-6.4-12.8-8.533333 29.866667-23.466667 61.866667-42.666667 98.133333-55.466667-14.933333 17.066667-27.733333 40.533333-40.533333 64 14.933333 0 29.866667 2.133333 44.8 4.266667 25.6-46.933333 57.6-76.8 93.866667-85.333333l0 108.8c14.933333 6.4 29.866667 10.666667 42.666667 19.2l0-128c44.8 10.666667 83.2 57.6 110.933333 123.733333-25.6 10.666667-53.333333 17.066667-83.2 19.2 17.066667 10.666667 34.133333 21.333333 49.066667 34.133333 17.066667-4.266667 34.133333-8.533333 49.066667-14.933333 8.533333 25.6 12.8 53.333333 17.066667 81.066667C789.333333 366.933333 810.666667 405.333333 825.6 448l110.933333 0c-4.266667 81.066667-38.4 151.466667-89.6 206.933333-4.266667 25.6-8.533333 51.2-17.066667 74.666667 91.733333-70.4 149.333333-179.2 149.333333-302.933333C981.333333 215.466667 808.533333 42.666667 597.333333 42.666667zM714.666667 106.666667c36.266667 12.8 68.266667 32 98.133333 55.466667-12.8 10.666667-29.866667 21.333333-46.933333 32C753.066667 160 736 130.133333 714.666667 106.666667zM810.666667 405.333333c-2.133333-61.866667-12.8-119.466667-27.733333-170.666667 23.466667-12.8 44.8-25.6 61.866667-42.666667 53.333333 55.466667 89.6 130.133333 93.866667 213.333333L810.666667 405.333333z" p-id="4294"></path></svg>