<?xml version="1.0" standalone="no"?><!DOCTYPE svg PUBLIC "-//W3C//DTD SVG 1.1//EN" "http://www.w3.org/Graphics/SVG/1.1/DTD/svg11.dtd"><svg t="1581785225704" class="icon" viewBox="0 0 1024 1024" version="1.1" xmlns="http://www.w3.org/2000/svg" p-id="15117" xmlns:xlink="http://www.w3.org/1999/xlink" width="200" height="200"><defs><style type="text/css"></style></defs><path d="M482.63168 721.3056h306.97472v52.69504H482.63168z" p-id="15118"></path><path d="M864.01024 747.66336l-37.29408 37.2736-111.9232-111.96416 37.2736-37.2736z" p-id="15119"></path><path d="M752.5376 859.56608l-37.2736-37.2736 111.94368-111.96416 37.2736 37.2736z" p-id="15120"></path><path d="M500.71552 578.29376c-117.82144 0-213.66784-95.8464-213.66784-213.66784s95.8464-213.66784 213.66784-213.66784 213.66784 95.8464 213.66784 213.66784-95.8464 213.66784-213.66784 213.66784z m0-372.67456c-87.67488 0-159.0272 71.33184-159.0272 159.0272s71.33184 159.0272 159.0272 159.0272 159.0272-71.33184 159.0272-159.0272-71.35232-159.0272-159.0272-159.0272z" p-id="15121"></path><path d="M214.17984 873.04192H159.5392c0-188.12928 153.06752-341.15584 341.17632-341.15584 59.41248 0 117.94432 15.52384 169.22624 44.87168l-27.11552 47.4112a286.45376 286.45376 0 0 0-142.09024-37.66272c-158.02368 0.02048-286.55616 128.55296-286.55616 286.53568z" p-id="15122"></path></svg>