<?xml version="1.0" standalone="no"?><!DOCTYPE svg PUBLIC "-//W3C//DTD SVG 1.1//EN" "http://www.w3.org/Graphics/SVG/1.1/DTD/svg11.dtd"><svg t="1581923032934" class="icon" viewBox="0 0 1024 1024" version="1.1" xmlns="http://www.w3.org/2000/svg" p-id="3482" xmlns:xlink="http://www.w3.org/1999/xlink" width="200" height="200"><defs><style type="text/css"></style></defs><path d="M588.9 877.6v-49.2H537v-102h375.1v-630h-800v630H487v102.1h-51.6v49.2H64v50h896v-50H588.9zM162.1 676.4v-530h700v530h-700z m205-410.4h36v272h-36V266z m299.8 15.3c-9-6.2-20.2-10.5-33.6-12.7-9.5-1.7-23.3-2.6-41.4-2.6H489.3v272h36V427.4h69.8c38.5 0 65.1-8 79.8-24 14.7-16 22.1-35.6 22.1-58.7 0-13.5-2.8-25.9-8.3-37.1-5.5-11.3-12.8-20.1-21.8-26.3z m-21.7 101c-9.8 8.7-26.3 13-49.5 13h-70.3v-97.2H595c16.3 0 27.5 0.8 33.6 2.4 9.4 2.6 17 7.9 22.7 16 5.8 8.1 8.6 17.8 8.6 29.2-0.1 15.8-5 28-14.7 36.6z" fill="" p-id="3483"></path></svg>