<?xml version="1.0" standalone="no"?><!DOCTYPE svg PUBLIC "-//W3C//DTD SVG 1.1//EN" "http://www.w3.org/Graphics/SVG/1.1/DTD/svg11.dtd"><svg t="1581764353143" class="icon" viewBox="0 0 1024 1024" version="1.1" xmlns="http://www.w3.org/2000/svg" p-id="2033" xmlns:xlink="http://www.w3.org/1999/xlink" width="200" height="200"><defs><style type="text/css"></style></defs><path d="M571.463 73.349v126.24h-126.24v-126.24h126.24M634.58 10.229h-252.475v252.475h252.475v-252.475z" p-id="2034"></path><path d="M950.175 830.777v126.24h-126.24v-126.24h126.24M571.463 830.777v126.24h-126.24v-126.24h126.24M192.748 830.777v126.24h-126.24v-126.24h126.24M539.902 262.705h-63.117v189.358h-378.713v315.597h-94.679v252.475h252.475v-252.475h-94.679v-252.475h315.597v252.475h-94.679v252.475h252.475v-252.475h-94.679v-252.475h315.597v252.475h-94.679v252.475h252.475v-252.475h-94.679v-315.597h-378.713v-189.358z" p-id="2035"></path></svg>