<?xml version="1.0" standalone="no"?><!DOCTYPE svg PUBLIC "-//W3C//DTD SVG 1.1//EN" "http://www.w3.org/Graphics/SVG/1.1/DTD/svg11.dtd"><svg t="1582010023793" class="icon" viewBox="0 0 1024 1024" version="1.1" xmlns="http://www.w3.org/2000/svg" p-id="1803" xmlns:xlink="http://www.w3.org/1999/xlink" width="200" height="200"><defs><style type="text/css"></style></defs><path d="M509.44 650.24c-48.64 0-87.04-38.4-87.04-87.04s38.4-87.04 87.04-87.04 87.04 38.4 87.04 87.04-40.96 87.04-87.04 87.04z m0-120.32c-20.48 0-35.84 15.36-35.84 35.84s15.36 35.84 35.84 35.84 35.84-15.36 35.84-35.84-17.92-35.84-35.84-35.84z" fill="#333333" p-id="1804"></path><path d="M483.84 599.04h51.2v135.68h-51.2z" fill="#333333" p-id="1805"></path><path d="M512 947.2c-5.12 0-10.24-2.56-12.8-5.12-10.24-7.68-258.56-171.52-258.56-384 0-81.92 2.56-145.92 7.68-202.24 0-12.8 12.8-23.04 25.6-23.04 120.32 0 209.92-48.64 209.92-92.16 0-15.36 10.24-25.6 25.6-25.6s25.6 10.24 25.6 25.6c0 84.48-117.76 135.68-238.08 143.36-2.56 48.64-5.12 104.96-5.12 174.08 0 184.32 232.96 337.92 235.52 340.48 12.8 7.68 15.36 23.04 7.68 35.84-7.68 7.68-15.36 12.8-23.04 12.8z" fill="#333333" p-id="1806"></path><path d="M512 947.2c-7.68 0-15.36-5.12-20.48-10.24-7.68-12.8-5.12-28.16 7.68-35.84 2.56-2.56 235.52-156.16 235.52-340.48 0-69.12-2.56-125.44-5.12-174.08-120.32-7.68-238.08-58.88-238.08-143.36 0-15.36 10.24-25.6 25.6-25.6s25.6 10.24 25.6 25.6c0 43.52 89.6 92.16 209.92 92.16 12.8 0 23.04 10.24 25.6 23.04 5.12 53.76 7.68 120.32 7.68 202.24 0 212.48-245.76 376.32-258.56 384-5.12 0-10.24 2.56-15.36 2.56z" fill="#333333" p-id="1807"></path></svg>