<?xml version="1.0" standalone="no"?><!DOCTYPE svg PUBLIC "-//W3C//DTD SVG 1.1//EN" "http://www.w3.org/Graphics/SVG/1.1/DTD/svg11.dtd"><svg t="1582010471486" class="icon" viewBox="0 0 1024 1024" version="1.1" xmlns="http://www.w3.org/2000/svg" p-id="6271" xmlns:xlink="http://www.w3.org/1999/xlink" width="200" height="200"><defs><style type="text/css"></style></defs><path d="M64 256l704 0 0 128 64 0L832 256 832 192 832 0 0 0l0 192 0 64 0 704 320 0 0-64L64 896 64 256zM64 64l704 0 0 128L64 192 64 64zM384 448l0 256 0 64 0 256 256 0 64 0 256 0L960 448 384 448zM640 960 448 960l0-192 192 0L640 960zM640 704 448 704 448 512l192 0L640 704zM896 960l-192 0 0-192 192 0L896 960zM896 704l-192 0L704 512l192 0L896 704z" p-id="6272"></path></svg>