<?xml version="1.0" standalone="no"?><!DOCTYPE svg PUBLIC "-//W3C//DTD SVG 1.1//EN" "http://www.w3.org/Graphics/SVG/1.1/DTD/svg11.dtd"><svg t="1582015517992" class="icon" viewBox="0 0 1024 1024" version="1.1" xmlns="http://www.w3.org/2000/svg" p-id="9297" xmlns:xlink="http://www.w3.org/1999/xlink" width="200" height="200"><defs><style type="text/css"></style></defs><path d="M512 128C264.96 128 64 328.96 64 576c0 100.544 32.544 195.52 94.08 274.688a31.968 31.968 0 1 0 50.528-39.232A380.384 380.384 0 0 1 128 576C128 364.256 300.256 192 512 192s384 172.256 384 384c0 86.144-27.872 167.584-80.64 235.456a31.904 31.904 0 0 0 5.632 44.864 31.84 31.84 0 0 0 44.864-5.632A443.264 443.264 0 0 0 960 576c0-247.04-200.96-448-448-448z" p-id="9298"></path><path d="M512 352a32 32 0 0 0 32-32V256a32 32 0 1 0-64 0v64a32 32 0 0 0 32 32zM241.888 421.472a32 32 0 1 0-35.776 53.056l53.056 35.776a31.936 31.936 0 0 0 44.416-8.64 32 32 0 0 0-8.64-44.416l-53.056-35.776zM810.848 423.936a32 32 0 0 0-45.152-3.168l-48.32 41.984a32 32 0 0 0 41.984 48.32l48.32-41.984a32 32 0 0 0 3.168-45.152zM607.392 736c0-2.592 0.288-5.12-0.352-7.744l-64-256c-0.352-1.44-1.28-2.496-1.824-3.84-0.864-2.144-1.632-4.256-2.944-6.176-1.12-1.664-2.528-2.944-3.904-4.352-1.504-1.536-2.912-3.008-4.704-4.224-1.76-1.184-3.712-1.888-5.664-2.688-1.44-0.608-2.624-1.6-4.224-1.984-0.512-0.128-0.992 0.032-1.504-0.064-2.048-0.416-4.128-0.288-6.272-0.288-2.112 0-4.192-0.128-6.24 0.288-0.512 0.096-1.024-0.064-1.536 0.064-1.632 0.416-2.848 1.44-4.352 2.08-1.888 0.8-3.744 1.472-5.472 2.592-1.888 1.248-3.36 2.816-4.928 4.384-1.344 1.344-2.656 2.592-3.744 4.192-1.312 1.92-2.08 4-2.944 6.144-0.544 1.344-1.472 2.432-1.856 3.872l-64 256c-0.672 2.624-0.352 5.184-0.352 7.744H416c0 1.408 0.352 2.688 0.416 4.096l0.128 1.312C419.424 791.776 460.928 832 512 832s92.576-40.224 95.456-90.592l0.128-1.312c0.064-1.376 0.416-2.688 0.416-4.096h-0.608zM512 768a31.808 31.808 0 0 1-31.552-29.824L512 611.904l31.552 126.24A31.776 31.776 0 0 1 512 768z" p-id="9299"></path></svg>