<?xml version="1.0" standalone="no"?><!DOCTYPE svg PUBLIC "-//W3C//DTD SVG 1.1//EN" "http://www.w3.org/Graphics/SVG/1.1/DTD/svg11.dtd"><svg t="1581848267311" class="icon" viewBox="0 0 1024 1024" version="1.1" xmlns="http://www.w3.org/2000/svg" p-id="2070" xmlns:xlink="http://www.w3.org/1999/xlink" width="200" height="200"><defs><style type="text/css"></style></defs><path d="M671.993412 192.039781c-88.3717 0-159.993924 71.621201-159.993924 159.991878s71.621201 159.992901 159.993924 159.992901c88.369653 0 159.991878-71.622224 159.991878-159.992901S760.363066 192.039781 671.993412 192.039781zM671.993412 448.02699c-52.93563 0-95.996354-43.060725-95.996354-95.995331 0-52.934606 43.059702-95.995331 95.996354-95.995331 52.934606 0 95.995331 43.060725 95.995331 95.995331C767.98772 404.967288 724.926995 448.02699 671.993412 448.02699z" p-id="2071"></path><path d="M288.011064 640.018675c-52.998051 0-95.996354 42.934858-95.996354 95.995331s42.998303 95.996354 95.996354 95.996354c52.997028 0 95.995331-42.935881 95.995331-95.996354S341.008093 640.018675 288.011064 640.018675zM288.011064 768.011768c-17.656125 0-31.999808-14.34266-31.999808-31.998785 0-17.655102 14.343683-31.998785 31.999808-31.998785 17.654079 0 31.998785 14.343683 31.998785 31.998785C320.009849 753.669108 305.665143 768.011768 288.011064 768.011768z" p-id="2072"></path><path d="M671.993412 0.049119c-193.490829 0-350.452697 156.242484-351.859743 349.482603 0.25071 2.87549 0.281409 14.499226 0.281409 14.499226-2.843768 45.49824-37.061081 82.121346-81.464383 88.621387l-0.031722 0.37453c-135.555325 23.37436-238.893902 140.743488-238.893902 282.986119 0 159.117974 128.930441 287.987017 287.987017 287.987017 136.961348 0 251.049756-95.744621 280.267195-223.864604 0-52.998051 45.716204-95.995331 98.745978-95.995331l0-0.500397c1.686409 0 3.279696 0.37453 4.968152 0.37453 194.364733 0 351.98254-157.616784 351.98254-351.98254S866.357122 0.049119 671.993412 0.049119zM674.273339 640.018675c-2.468215-0.188288-5.500271-0.37453-7.249101-0.37453-3.437286 0-6.813173 0.280386-10.092869 0.812505-82.184791 4.936429-148.056034 70.152756-152.430668 151.148465-25.343201 99.43364-113.52559 168.398338-216.489636 168.398338-123.494639 0-223.99047-100.495832-223.99047-223.99047 0-108.869546 78.121242-201.36517 185.772031-219.926922 2.375094-0.405229 4.687766-0.937348 6.936993-1.593288 69.996191-14.21884 123.056664-74.496691 127.557164-146.461723 0.093121-1.562589 0.155543-2.594081 0.12382-4.187369 0 0-0.094144-8.374738-0.280386-14.499226 1.500167-157.36812 130.49303-285.298791 287.862173-285.298791 158.804842 0 287.98497 129.181151 287.98497 287.985993C959.977359 510.086417 832.017012 638.768195 674.273339 640.018675z" p-id="2073"></path></svg>