<?xml version="1.0" encoding="utf-8"?>
<svg viewBox="115.036 97.781 321.067 50.071" xmlns="http://www.w3.org/2000/svg">
  <g transform="matrix(0.542803, 0, 0, 0.498322, 114.753647, 97.781151)" style="">
    <path class="st0" d="M129.42,78.56c-15.05-7.2-36.95,4.5-37.79,4.95c-3.8,1.95-6.81,2.55-8.06,1.6c-1.19-0.91-2.19-3.28-2.2-6.01 h-0.02l0.02-0.24c0-0.33,0.03-0.66,0.07-1l0.92-13.99V47.24c0-0.37-0.05-0.74-0.14-1.1C80.4,23.61,60.67,6.83,38.15,8.64 C18.14,10.26,2.26,26.15,0.66,46.16c-0.09,0.36-0.14,0.73-0.14,1.1v26.61c0,2.62,2.13,4.75,4.75,4.75s4.75-2.13,4.75-4.75v-7.76 c0-2.25,1.82-4.07,4.07-4.07l0,0h0.17c2.25,0,4.07,1.82,4.07,4.07l0,0V87.6c0,2.62,2.13,4.75,4.75,4.75s4.75-2.13,4.75-4.75V66.38 c0-2.4,1.94-4.34,4.34-4.34h0.2c2.4,0,4.34,1.94,4.34,4.34v29.35c0.01,2.62,2.13,4.74,4.75,4.75l0,0c2.62-0.01,4.74-2.13,4.75-4.75 V76.02c0,0-0.1-1.29-0.13-1.52c-0.01-0.13-0.02-0.27-0.02-0.4v-7.72c0-2.4,1.94-4.34,4.34-4.34h0.2c2.4,0,4.34,1.94,4.34,4.34v7.72 c0,0.15-0.01,0.29-0.03,0.44c-0.02,0.2-0.11,1.78-0.11,1.78V87.6c0,2.62,2.13,4.75,4.75,4.75c2.62,0,4.75-2.13,4.75-4.75v-10.6 c0,0-0.16-2.51-0.16-2.89v-7.72c0-2.4,1.94-4.34,4.34-4.34c0,0,0,0,0,0h0.2c2.4,0,4.34,1.94,4.34,4.34v7.6l-0.02,0.38 c0,0.07-0.02,0.14-0.02,0.21c0,0.01,0,0.02,0,0.02c-0.35,5.79,0.3,13.51,5.38,17.39c1.96,1.49,4.37,2.27,6.83,2.22 c3.05,0,6.56-1.01,10.51-3.04c5.23-2.83,20.81-9.22,30.02-4.8c2.13,1.07,4.73,0.2,5.8-1.93c1.07-2.13,0.2-4.73-1.93-5.8 c-0.04-0.02-0.09-0.04-0.14-0.07L129.42,78.56z" style="fill: rgb(59, 174, 228);"/>
    <path class="st1" d="M28.41,36.73c-0.78,6.05,5.81,10.21,11.32,8.97c6.34-1.42,7.43-10.85,2.84-14.71 c-3.47-2.91-8.37-2.79-11.51,0.56C29.44,33.28,28.62,35.05,28.41,36.73L28.41,36.73z" style="fill: rgb(255, 255, 255);"/>
    <path d="M36.49,40.91c1.49,0.27,2.55-1.68,1.45-2.78c-0.88-0.88-2.42-0.79-2.71,0.44C34.99,39.6,35.35,40.71,36.49,40.91 L36.49,40.91z"/>
    <path class="st1" d="M48.57,38.1c-0.62,4.83,4.63,8.14,9.03,7.16c5.06-1.13,5.93-8.66,2.27-11.73c-2.77-2.32-6.68-2.23-9.18,0.44 C49.39,35.34,48.74,36.75,48.57,38.1z" style="fill: rgb(255, 255, 255);"/>
    <path d="M54.16,40.73c1.19,0.21,2.04-1.34,1.16-2.22c-0.7-0.7-1.93-0.63-2.17,0.36C52.96,39.68,53.24,40.57,54.16,40.73z"/>
    <path class="st0" d="M39.68,3.68L39.68,3.68c1.1,0,1.99,0.89,1.99,1.99v5.68c0,1.1-0.89,1.99-1.99,1.99h0 c-1.1,0-1.99-0.89-1.99-1.99V5.67C37.69,4.57,38.58,3.68,39.68,3.68z" style="fill: rgb(59, 174, 228);"/>
    <circle class="st0" cx="39.68" cy="3.43" r="3.43" style="fill: rgb(59, 174, 228);"/>
    <path class="st2" d="M179.87,60.8c0-0.04,0-0.08,0-0.13s0-0.02,0-0.03v-0.02c0-0.01,0-0.02,0-0.03c-0.09-0.98-0.8-1.79-1.76-2.01 c-0.04-0.01-0.08-0.02-0.12-0.02c-0.17-0.03-0.34-0.04-0.51-0.03l-9.96,0.54c-1.25,0.07-2.22,1.14-2.15,2.39 c0.07,1.25,1.14,2.22,2.39,2.15l9.96-0.54c1.17-0.07,2.1-1.01,2.15-2.19C179.88,60.85,179.88,60.83,179.87,60.8z" style="fill: rgb(51, 51, 51);"/>
    <path class="st2" d="M145.71,58.45c-0.17-1.19-0.57-2.34-1.17-3.37c-0.39-0.66-0.93-1.22-1.57-1.64c-0.62-0.42-1.32-0.71-2.06-0.87 c-0.74-0.16-1.5-0.2-2.26-0.13c-0.75,0.07-1.49,0.26-2.17,0.58c-0.24,0.12-0.47,0.24-0.7,0.34c-0.23,0.11-0.45,0.23-0.67,0.34 c0.05-1.06,0.08-1.95,0.09-2.67c0.01-0.72,0-1.36,0-1.9c0-0.22-0.01-0.42-0.03-0.62v-1.98c0-1.29-1.04-2.33-2.33-2.33 s-2.33,1.04-2.33,2.33v2.06c-0.03,4.13-0.11,13.93-0.02,14.65c0,0.03,0.01,0.05,0.02,0.08c0.15,2.35,1.27,6.78,7.68,5.91h0.05 c0.27-0.03,0.54-0.08,0.81-0.13c0.62-0.08,1.23-0.25,1.8-0.51c0.3-0.11,0.59-0.23,0.88-0.37c1.13-0.5,2.07-1.35,2.69-2.42 c0.64-1.09,1.07-2.28,1.26-3.53C145.91,61.01,145.91,59.71,145.71,58.45z M138.77,64.74c-1.85,0-3.35-1.82-3.35-4.07 c0-2.25,1.5-4.07,3.35-4.07s3.34,1.82,3.34,4.07C142.12,62.92,140.63,64.74,138.77,64.74z" style="fill: rgb(51, 51, 51);"/>
    <path class="st2" d="M163.78,64.04c-0.57-0.84-1.65-1.16-2.58-0.76l0,0c-0.12,0.05-0.23,0.11-0.34,0.18l-0.18,0.12 c-0.74,0.43-1.5,0.83-2.27,1.18c-0.57,0.21-1.17,0.37-1.77,0.45c-0.68,0.1-1.37,0.07-2.04-0.09c-0.68-0.17-1.29-0.56-1.73-1.1 c0.75-0.24,1.52-0.45,2.33-0.65c0.8-0.19,1.59-0.43,2.37-0.71c0.77-0.28,1.51-0.6,2.24-0.97c0.73-0.38,1.4-0.88,1.99-1.46 c0.59-0.56,1-1.28,1.17-2.08c0.16-0.75,0.14-1.52-0.05-2.26c-0.2-0.76-0.57-1.47-1.07-2.08c-0.5-0.62-1.14-1.12-1.86-1.46 c-0.94-0.42-1.96-0.6-2.98-0.52c-0.34,0.02-0.67,0.05-1,0.1l0,0c-5.03,0.52-6.96,3.39-7.7,5.54l0,0c-0.16,0.46-0.28,0.94-0.36,1.42 c-0.35,1.8-0.56,4.95,1.38,7.27c0.6,0.86,1.35,1.6,2.22,2.19c0.79,0.52,1.67,0.88,2.6,1.05c0.99,0.17,2,0.17,2.98,0 c1.15-0.19,2.27-0.49,3.36-0.9c0.53-0.19,1.05-0.42,1.55-0.69l0.23-0.13l0,0c1.15-0.66,1.38-1.07,1.38-1.07l0,0 C164.25,65.89,164.32,64.83,163.78,64.04z M155.2,55.94c1.36-0.58,2.76-0.31,3.15,0.59s-0.39,2.11-1.74,2.69 c-1.35,0.58-2.76,0.32-3.15-0.59C153.07,57.72,153.85,56.52,155.2,55.94z" style="fill: rgb(51, 51, 51);"/>
    <path class="st2" d="M122.78,67.75L122.78,67.75c0,0,1.8,2.51,4.71-0.05l0.77-0.77c0.71-0.77,0.67-1.97-0.1-2.68 c-0.65-0.6-1.63-0.68-2.36-0.18c-0.05-0.14-0.11-0.29-0.15-0.44c-0.21-0.71-0.35-1.44-0.42-2.17c-0.07-0.74-0.1-1.49-0.07-2.24 c0.03-0.75,0.06-1.46,0.11-2.13c0.02-0.36,0.07-0.75,0.12-1.17c0.06-0.41,0.09-0.83,0.09-1.25c0-0.39-0.06-0.78-0.18-1.16 c0-0.01-0.01-0.03-0.02-0.05c-0.22-1.21-1.37-2.02-2.58-1.8c-1.09,0.19-1.87,1.15-1.84,2.25v1.39c0,0.05,0,0.1,0,0.15v4.69l0,0 c0.02,0.98,0.02,2.01-0.04,2.63c-0.49,1.53-2.13,2.37-3.66,1.87c-1.2-0.39-2.02-1.51-2.01-2.78v-1.95c0-0.31,0-0.62,0-0.94v-0.11 c0-0.02,0-0.04,0-0.06c0-0.37,0.03-0.74,0.06-1.12c0.11-1.24,0.14-2.48,0.09-3.72c0-0.05-0.01-0.09-0.02-0.13 c-0.03-1.2-1.03-2.15-2.23-2.11c-1.2,0.03-2.15,1.03-2.11,2.23l0,0v0.25c-0.04,0.28-0.05,0.56-0.05,0.84c0,0.3-0.01,0.61-0.04,0.92 c-0.02,0.41-0.05,0.8-0.07,1.17c-0.02,0.37-0.04,0.75-0.04,1.14c-0.03,1.11-0.01,2.27,0.05,3.5c0.04,1.17,0.35,2.32,0.88,3.36 c0.51,1.01,1.24,1.89,2.13,2.58c0.79,0.62,1.72,1.03,2.71,1.21c0.98,0.17,1.99,0.1,2.94-0.2c1.05-0.33,2.03-0.87,2.88-1.58 L122.78,67.75z" style="fill: rgb(51, 51, 51);"/>
    <path class="st2" d="M204.24,53.49c-0.13-0.92-0.4-1.81-0.8-2.65c-0.39-0.85-0.92-1.64-1.55-2.33c-0.46-0.51-0.97-0.97-1.54-1.36 c-0.57-0.38-1.17-0.72-1.79-1.01c-0.78-0.36-1.61-0.61-2.47-0.74c-0.85-0.13-1.71-0.16-2.57-0.1c-1.61,0.14-3.16,0.66-4.53,1.51 c-1.35,0.84-2.54,1.92-3.5,3.18c-0.98,1.29-1.74,2.73-2.26,4.26c-0.53,1.51-0.81,3.1-0.85,4.71c-0.01,0.94,0.07,1.87,0.22,2.79 c0.16,0.96,0.44,1.9,0.84,2.78c0.39,0.87,0.92,1.68,1.57,2.38c0.67,0.72,1.49,1.27,2.4,1.63c0.52,0.31,1.07,0.57,1.65,0.76 c0.77,0.23,1.56,0.4,2.37,0.5c1.44,0.16,2.89-0.02,4.24-0.54c1.26-0.5,2.42-1.23,3.42-2.14c1.03-0.94,1.92-2.02,2.65-3.21 c0.56-0.89,1.06-1.82,1.5-2.78l0.64-1.84c0.18-0.81,0.32-1.63,0.41-2.44C204.41,55.73,204.39,54.6,204.24,53.49z M198.43,59.02 c-1.09,3.33-4.21,5.3-7,4.4c-2.79-0.9-4.18-4.34-3.1-7.66c1.07-3.32,4.21-5.3,7-4.4C198.11,52.26,199.5,55.69,198.43,59.02z" style="fill: rgb(51, 51, 51);"/>
    <path class="st2" d="M225.12,45.34c-1.05-0.49-2.29-0.03-2.78,1.02c0,0,0,0,0,0l-6.29,13.56l-5.24-12.98 c-0.43-1.07-1.65-1.59-2.72-1.16s-1.59,1.65-1.16,2.72L212,61.05l2.11,5.59c0.03,0.1,0.06,0.2,0.11,0.29l0,0l0,0 c0.33,0.69,1.02,1.13,1.79,1.14h0.14c0.2-0.01,0.4-0.05,0.59-0.12c0.17-0.06,0.32-0.16,0.46-0.27c0.32-0.25,0.56-0.58,0.69-0.97 c0.05-0.11,0.1-0.22,0.15-0.34l5.52-12.75l2.57-5.51C226.61,47.06,226.16,45.82,225.12,45.34z" style="fill: rgb(51, 51, 51);"/>
    <path class="st2" d="M246.12,43.74h-0.1c-1.29-0.03-2.35,0.99-2.39,2.27l-0.35,13.72c-0.52-0.75-1.04-1.49-1.58-2.24l-0.2-0.27 l-0.57-0.71l-7.95-10.91l0,0c-0.83-1.02-2.33-1.18-3.35-0.35c-0.56,0.45-0.88,1.13-0.88,1.85v21.38c0.04,1.32,1.15,2.35,2.46,2.3 c1.25-0.04,2.26-1.05,2.3-2.3V54.64l2.97,4.15l6.93,10.27l0,0c0.41,0.68,1.14,1.11,1.93,1.13h0.1c1.29,0.03,2.35-0.99,2.39-2.27 l0.12-4.69c0.08-1.98,0.15-3.95,0.2-5.93c0.04-1.65,0.06-3.3,0.07-4.95l0.16-6.21C248.42,44.84,247.4,43.77,246.12,43.74z" style="fill: rgb(51, 51, 51);"/>
    <path class="st2" d="M108.23,65.26c-1.82-2.25-5.2-5.46-5.43-5.68c-0.23-0.22-0.47-0.5-0.7-0.75l-1.77-1.91 c0.84-0.78,1.41-1.34,1.41-1.34c0.51-0.46,1-0.93,1.48-1.43s0.94-1,1.37-1.52c0.09-0.11,0.18-0.22,0.27-0.33l0,0 c2-2.21,2.28-3.26,2.28-3.26c0.57-1.06,0.17-2.37-0.88-2.94c-0.73-0.39-1.62-0.34-2.29,0.15l-8.26,7.98c0-1.01,0-2.02,0.03-3.01 c0-0.18,0-0.36,0-0.54c0-0.07,0-0.13,0-0.2v-3.26c0-1.22-0.99-2.21-2.21-2.21s-2.21,0.99-2.21,2.21v3.26c0,0.06,0,0.12,0,0.17 c-0.01,0.76-0.01,1.46,0,2.1c0,0.65,0.02,1.01,0.02,1.09v7.55c0,0.14,0,0.54-0.02,1.17c-0.02,0.63,0,1.33,0.02,2.08 c0,0.23,0.02,0.44,0.03,0.66l0,0l0.07,2.82v0.05c0,0.02,0,0.03,0,0.05v0.09l0,0c0.09,1.2,1.13,2.09,2.33,2 c1.01-0.08,1.83-0.84,1.98-1.84V66c-0.03-0.96-0.06-1.91-0.08-2.86c-0.02-0.78-0.02-1.55-0.03-2.34c0.44-0.3,0.9-0.66,1.37-1.03 l2.78,2.95c1.11,1.18,2.23,2.38,3.36,3.61c0.12,0.12,0.27,0.27,0.43,0.49l0.52,0.63c0.18,0.22,0.37,0.43,0.58,0.63 c0.19,0.19,0.39,0.36,0.6,0.52c0.37,0.3,0.84,0.45,1.32,0.43c0.22-0.01,0.45-0.06,0.66-0.14c0.35-0.1,0.68-0.28,0.94-0.54 C109.06,67.51,109.07,66.13,108.23,65.26z" style="fill: rgb(51, 51, 51);"/>
  </g>
  <path fill-rule="evenodd" clip-rule="evenodd" d="M 346.013 124.411 L 340.834 124.411 L 338.214 128.93 L 340.834 133.387 L 346.013 133.387 L 348.632 128.93 L 346.013 124.411 Z" fill="#8061A9" style=""/>
  <path fill-rule="evenodd" clip-rule="evenodd" d="M 346.013 112.442 L 340.834 112.442 L 338.214 116.961 L 340.834 121.419 L 346.013 121.419 L 348.632 116.961 L 346.013 112.442 Z" fill="#F17323" style=""/>
  <path fill-rule="evenodd" clip-rule="evenodd" d="M 335.594 106.743 L 330.416 106.743 L 327.795 111.262 L 330.416 115.719 L 335.594 115.719 L 338.214 111.262 L 335.594 106.743 Z" fill="#F8C517" style=""/>
  <path fill-rule="evenodd" clip-rule="evenodd" d="M 325.176 112.442 L 319.997 112.442 L 317.378 116.961 L 319.997 121.419 L 325.176 121.419 L 327.795 116.961 L 325.176 112.442 Z" fill="#CADD72" style=""/>
  <path fill-rule="evenodd" clip-rule="evenodd" d="M 335.594 118.142 L 330.416 118.142 L 327.795 122.66 L 330.416 127.118 L 335.594 127.118 L 338.214 122.66 L 335.594 118.142 Z" fill="#E82629" style=""/>
  <path fill-rule="evenodd" clip-rule="evenodd" d="M 325.176 124.411 L 319.997 124.411 L 317.378 128.93 L 319.997 133.387 L 325.176 133.387 L 327.795 128.93 L 325.176 124.411 Z" fill="#98C93E" style=""/>
  <path fill-rule="evenodd" clip-rule="evenodd" d="M 335.594 130.11 L 330.416 130.11 L 327.795 134.629 L 330.416 139.086 L 335.594 139.086 L 338.214 134.629 L 335.594 130.11 Z" fill="#628AC6" style=""/>
  <path fill-rule="evenodd" clip-rule="evenodd" d="M 335.331 126.382 L 330.679 126.382 L 328.326 122.443 L 330.679 118.45 L 335.331 118.45 L 337.684 122.443 L 335.331 126.382 Z M 336.17 117.002 L 329.821 117.002 L 326.638 122.434 L 329.821 127.83 L 336.17 127.83 L 339.372 122.434 L 336.17 117.002 Z" fill="#363736" style=""/>
  <path fill-rule="evenodd" clip-rule="evenodd" d="M 329.821 128.97 L 326.638 134.403 L 329.821 139.799 L 336.17 139.799 L 339.372 134.403 L 336.17 128.97 L 329.821 128.97 Z M 328.326 134.412 L 330.679 130.419 L 335.331 130.419 L 337.684 134.412 L 335.331 138.35 L 330.679 138.35 L 328.326 134.412 Z" fill="#363736" style=""/>
  <path fill-rule="evenodd" clip-rule="evenodd" d="M 329.821 105.603 L 326.638 111.036 L 329.821 116.432 L 336.17 116.432 L 339.372 111.036 L 336.17 105.603 L 329.821 105.603 Z M 328.326 111.045 L 330.679 107.052 L 335.331 107.052 L 337.684 111.045 L 335.331 114.983 L 330.679 114.983 L 328.326 111.045 Z" fill="#363736" style=""/>
  <path fill-rule="evenodd" clip-rule="evenodd" d="M 340.24 123.271 L 337.056 128.704 L 340.24 134.099 L 346.588 134.099 L 349.79 128.704 L 346.588 123.271 L 340.24 123.271 Z M 338.744 128.712 L 341.097 124.72 L 345.749 124.72 L 348.102 128.712 L 345.749 132.651 L 341.097 132.651 L 338.744 128.712 Z" fill="#363736" style=""/>
  <path fill-rule="evenodd" clip-rule="evenodd" d="M 340.24 111.303 L 337.056 116.735 L 340.24 122.131 L 346.588 122.131 L 349.79 116.735 L 346.588 111.303 L 340.24 111.303 Z M 338.744 116.744 L 341.097 112.751 L 345.749 112.751 L 348.102 116.744 L 345.749 120.682 L 341.097 120.682 L 338.744 116.744 Z" fill="#363736" style=""/>
  <path fill-rule="evenodd" clip-rule="evenodd" d="M 319.403 123.271 L 316.22 128.704 L 319.403 134.099 L 325.751 134.099 L 328.953 128.704 L 325.751 123.271 L 319.403 123.271 Z M 317.908 128.712 L 320.261 124.72 L 324.912 124.72 L 327.265 128.712 L 324.912 132.651 L 320.261 132.651 L 317.908 128.712 Z" fill="#363736" style=""/>
  <path fill-rule="evenodd" clip-rule="evenodd" d="M 319.403 111.303 L 316.22 116.735 L 319.403 122.131 L 325.751 122.131 L 328.953 116.735 L 325.751 111.303 L 319.403 111.303 Z M 317.908 116.744 L 320.261 112.751 L 324.912 112.751 L 327.265 116.744 L 324.912 120.682 L 320.261 120.682 L 317.908 116.744 Z" fill="#363736" style=""/>
  <path fill-rule="evenodd" clip-rule="evenodd" d="M 436.103 131.825 L 433.705 131.825 C 433.701 131.754 433.693 131.682 433.693 131.61 C 433.692 131.079 433.693 130.548 433.693 130.017 C 433.693 127.423 433.691 124.829 433.694 122.236 C 433.695 121.604 433.629 120.983 433.429 120.38 C 433.065 119.28 432.284 118.679 431.13 118.546 C 429.864 118.399 428.731 118.719 427.737 119.512 C 427.167 119.967 426.673 120.492 426.243 121.074 C 426.197 121.136 426.181 121.223 426.166 121.301 C 426.153 121.36 426.163 121.424 426.163 121.486 C 426.163 124.825 426.163 128.164 426.163 131.502 L 426.163 131.778 L 423.681 131.778 C 423.677 131.7 423.671 131.621 423.671 131.542 C 423.67 130.245 423.67 128.948 423.67 127.651 C 423.67 125.816 423.671 123.982 423.67 122.147 C 423.669 121.522 423.587 120.908 423.379 120.316 C 423.007 119.256 422.234 118.679 421.117 118.547 C 419.803 118.392 418.637 118.739 417.623 119.581 C 417.122 119.997 416.687 120.471 416.305 120.995 C 416.219 121.113 416.183 121.231 416.183 121.377 C 416.187 123.791 416.186 126.205 416.186 128.62 C 416.186 129.606 416.186 130.592 416.186 131.579 C 416.186 131.654 416.186 131.729 416.186 131.8 C 416.018 131.844 414.142 131.86 413.723 131.824 C 413.677 131.682 413.661 117.121 413.707 116.836 C 413.856 116.793 415.37 116.783 415.623 116.827 C 415.778 117.508 415.935 118.197 416.101 118.929 C 416.185 118.841 416.236 118.788 416.285 118.733 C 416.632 118.345 416.976 117.956 417.391 117.632 C 418.079 117.096 418.83 116.708 419.698 116.55 C 420.713 116.365 421.718 116.373 422.711 116.671 C 423.608 116.941 424.305 117.487 424.875 118.205 C 425.126 118.521 425.334 118.864 425.514 119.224 C 425.543 119.284 425.577 119.343 425.623 119.432 C 425.687 119.35 425.734 119.294 425.778 119.235 C 426.269 118.582 426.84 118.008 427.504 117.524 C 428.596 116.73 429.827 116.395 431.171 116.434 C 431.756 116.451 432.332 116.544 432.887 116.712 C 433.965 117.039 434.819 117.652 435.366 118.655 C 435.785 119.423 436.018 120.236 436.07 121.101 C 436.093 121.479 436.101 121.859 436.102 122.238 C 436.104 125.342 436.103 128.446 436.103 131.55 C 436.103 131.638 436.103 131.726 436.103 131.825 Z" fill="black" style=""/>
  <path fill-rule="evenodd" clip-rule="evenodd" d="M 406.597 116.812 L 409.074 116.812 C 409.078 116.877 409.087 116.936 409.087 116.996 C 409.087 120.052 409.09 123.108 409.084 126.164 C 409.082 126.847 409.04 127.534 408.845 128.192 C 408.306 130.011 407.124 131.235 405.29 131.834 C 404.768 132.005 404.225 132.072 403.682 132.122 C 402.727 132.21 401.774 132.175 400.841 131.957 C 399.801 131.714 398.856 131.272 398.115 130.491 C 397.438 129.777 396.987 128.938 396.768 127.978 C 396.63 127.375 396.57 126.765 396.568 126.152 C 396.56 123.096 396.564 120.04 396.564 116.984 C 396.564 116.937 396.568 116.889 396.57 116.845 C 396.72 116.792 398.792 116.779 399.066 116.831 L 399.066 117.088 C 399.066 120.02 399.067 122.951 399.066 125.883 C 399.066 126.401 399.086 126.917 399.196 127.426 C 399.516 128.917 400.56 129.871 402.096 130.07 C 402.712 130.149 403.328 130.145 403.934 130.007 C 405.039 129.756 405.791 129.083 406.234 128.07 C 406.528 127.398 406.593 126.683 406.595 125.962 C 406.599 124.045 406.597 122.127 406.597 120.209 C 406.597 119.168 406.597 118.126 406.597 117.084 L 406.597 116.812 Z" fill="black" style=""/>
  <path fill-rule="evenodd" clip-rule="evenodd" d="M 369.928 119.282 C 369.334 119.108 368.781 118.934 368.221 118.784 C 367.57 118.61 366.907 118.506 366.231 118.513 C 365.589 118.519 364.96 118.618 364.354 118.824 C 363.53 119.104 362.856 119.592 362.341 120.286 C 361.697 121.153 361.335 122.123 361.236 123.192 C 361.179 123.811 361.154 124.431 361.2 125.051 C 361.276 126.102 361.572 127.08 362.171 127.963 C 362.871 128.993 363.854 129.598 365.07 129.853 C 365.88 130.023 366.698 130.008 367.516 129.916 C 368.321 129.825 369.091 129.599 369.85 129.332 C 369.928 129.305 370.008 129.281 370.101 129.251 L 370.101 131.292 C 369.89 131.387 369.675 131.505 369.447 131.585 C 368.315 131.98 367.141 132.159 365.943 132.157 C 364.696 132.154 363.501 131.902 362.37 131.359 C 360.776 130.594 359.709 129.378 359.103 127.751 C 358.741 126.778 358.571 125.77 358.541 124.735 C 358.504 123.524 358.647 122.339 359.031 121.188 C 359.768 118.98 361.266 117.508 363.488 116.738 C 363.967 116.572 364.461 116.494 364.964 116.45 C 365.55 116.398 366.136 116.356 366.725 116.404 C 367.772 116.489 368.79 116.682 369.736 117.16 C 369.882 117.233 369.935 117.315 369.932 117.477 C 369.92 118.008 369.928 118.539 369.928 119.07 L 369.928 119.282 Z" fill="black" style=""/>
  <path fill-rule="evenodd" clip-rule="evenodd" d="M 381.683 131.776 L 384.146 131.776 L 384.146 108.937 L 381.683 108.937 L 381.683 131.776 Z" fill="black" style=""/>
  <path fill-rule="evenodd" clip-rule="evenodd" d="M 376.532 131.779 L 374.097 131.779 C 374.086 131.771 374.08 131.767 374.076 131.762 C 374.071 131.757 374.067 131.751 374.066 131.745 C 374.061 131.711 374.053 131.677 374.053 131.643 C 374.054 126.726 374.054 121.809 374.056 116.891 C 374.056 116.872 374.066 116.853 374.07 116.835 C 374.228 116.793 376.285 116.784 376.532 116.825 L 376.532 131.779 Z" fill="black" style=""/>
  <path fill-rule="evenodd" clip-rule="evenodd" d="M 389.296 116.813 L 391.737 116.813 C 391.782 116.962 391.798 131.5 391.752 131.776 L 389.296 131.776 L 389.296 116.813 Z" fill="black" style=""/>
  <path fill-rule="evenodd" clip-rule="evenodd" d="M 376.477 113.289 L 374.035 113.289 C 373.992 113.135 373.983 110.819 374.025 110.575 L 376.468 110.575 C 376.507 110.723 376.518 113.014 376.477 113.289 Z" fill="black" style=""/>
  <path fill-rule="evenodd" clip-rule="evenodd" d="M 389.253 110.566 L 391.687 110.566 C 391.737 110.712 391.756 112.873 391.711 113.281 L 389.253 113.281 L 389.253 110.566 Z" fill="black" style=""/>
  <path d="M 279.35 113.706 C 277.226 110.166 273.686 107.688 269.438 107.688 C 263.42 107.688 258.818 112.29 258.818 118.308 C 258.818 129.99 265.19 131.761 279.35 145.213 C 293.511 131.761 299.883 129.99 299.883 118.308 C 299.883 112.29 295.281 107.688 289.263 107.688 C 285.015 107.688 281.474 110.166 279.35 113.706 Z" id="path4" style="fill: rgb(255, 7, 7);"/>
</svg>