<svg id="图层_1" data-name="图层 1" xmlns="http://www.w3.org/2000/svg" viewBox="0 0 955 500">
    <defs>
        <style>.cls-1{fill:#3baee4;}.cls-2{font-size:131.45px;fill:#333;font-family:ChalkboardSE-Bold, Chalkboard
            SE;font-weight:700;}.cls-3{letter-spacing:-0.02em;}.cls-4{letter-spacing:0em;}.cls-5{fill:#fff;}.cls-5,.cls-6{fill-rule:evenodd;}
        </style>
    </defs>
    <title>定稿logo竖版</title>
    <path class="cls-1"
          d="M754.17,265.58c-50.54-24.18-124.08,15.1-126.9,16.63-12.75,6.55-22.87,8.58-27.07,5.36-4-3.05-7.37-11-7.4-20.18h0l.06-.8c0-1.11.09-2.22.22-3.35l3.1-47V160.39a15.72,15.72,0,0,0-.48-3.71,137.38,137.38,0,0,0-273.88.1,15.48,15.48,0,0,0-.48,3.69V249.8a15.94,15.94,0,1,0,31.88,0v-26a13.69,13.69,0,0,1,13.65-13.64h.62a13.68,13.68,0,0,1,13.64,13.64v72.17a15.95,15.95,0,0,0,31.89,0V224.69a14.6,14.6,0,0,1,14.57-14.57h.66a14.61,14.61,0,0,1,14.57,14.57v98.58a16,16,0,0,0,15.94,15.94h0a16,16,0,0,0,15.94-15.94V257.06s-.34-4.34-.42-5.1a11.94,11.94,0,0,1-.08-1.35V224.69a14.61,14.61,0,0,1,14.57-14.57h.66A14.61,14.61,0,0,1,504,224.69v25.92a11.84,11.84,0,0,1-.09,1.47c-.07.65-.35,6-.35,6v37.88a15.94,15.94,0,1,0,31.88,0V260.32s-.54-8.42-.54-9.71V224.69a14.61,14.61,0,0,1,14.57-14.57h.66a14.6,14.6,0,0,1,14.57,14.57v25.47c0,.42,0,.85-.08,1.28,0,.24-.05.49-.07.73a.31.31,0,0,0,0,.08c-1.17,19.46,1,45.36,18.06,58.39a36.8,36.8,0,0,0,22.94,7.46q15.36,0,35.3-10.23c17.55-9.5,69.86-30.95,100.82-16.11a14.51,14.51,0,0,0,12.53-26.18Z"/>
    <text class="cls-2" transform="translate(172.37 437.98)">
        <tspan class="cls-3">K</tspan>
        <tspan x="77.57" y="0">ube-</tspan>
        <tspan class="cls-4" x="366.76" y="0">O</tspan>
        <tspan x="465.24" y="0">VN</tspan>
    </text>
    <path class="cls-5"
          d="M415,125.12c-2.63,20.32,19.51,34.29,38,30.13,21.29-4.77,25-36.46,9.54-49.38-11.65-9.77-28.12-9.37-38.64,1.87-5.41,5.79-8.16,11.73-8.9,17.38Z"/>
    <path class="cls-6"
          d="M442.09,139.15c5,.87,8.57-5.65,4.88-9.34-3-3-8.14-2.65-9.14,1.5-.82,3.45.37,7.16,4.26,7.84Z"/>
    <path class="cls-5"
          d="M482.65,129.7c-2.09,16.21,15.57,27.35,30.32,24,17-3.81,19.92-29.09,7.61-39.4-9.29-7.79-22.43-7.48-30.82,1.49-4.32,4.62-6.52,9.36-7.11,13.87Z"/>
    <path class="cls-6"
          d="M501.44,138.55c4,.69,6.85-4.51,3.9-7.45-2.35-2.36-6.49-2.12-7.29,1.19-.66,2.76.3,5.71,3.39,6.26Z"/>
    <rect class="cls-1" x="446.14" y="14.12" width="13.37" height="32.46" rx="6.68" ry="6.68"/>
    <circle class="cls-1" cx="452.82" cy="14.12" r="11.36"/>
</svg>