<svg id="图层_1" data-name="图层 1" xmlns="http://www.w3.org/2000/svg" viewBox="0 0 955 500">
    <defs>
        <style>.cls-1{fill:#3baee4;}.cls-2{font-size:131.53px;fill:#333;font-family:ChalkboardSE-Bold, Chalkboard
            SE;font-weight:700;}.cls-3{letter-spacing:-0.02em;}.cls-4{letter-spacing:0em;}.cls-5{fill:#fff;}.cls-5,.cls-6{fill-rule:evenodd;}
        </style>
    </defs>
    <title>定稿logo横版</title>
    <path class="cls-1"
          d="M434.38,338.46c-50.57-24.2-124.15,15.11-127,16.64-12.76,6.56-22.88,8.58-27.09,5.37-4-3.06-7.37-11-7.4-20.2h-.05l.06-.8c0-1.11.09-2.22.22-3.36l3.1-47v-55.9a15.65,15.65,0,0,0-.48-3.71,137.46,137.46,0,0,0-274,.1,16,16,0,0,0-.47,3.69v89.38a16,16,0,0,0,31.9,0V296.62A13.7,13.7,0,0,1,46.82,283h.61a13.7,13.7,0,0,1,13.66,13.66v72.21a16,16,0,0,0,31.9,0V297.54A14.63,14.63,0,0,1,107.57,283h.66a14.63,14.63,0,0,1,14.57,14.58v98.64a16,16,0,0,0,16,15.95h0a16,16,0,0,0,16-15.95V329.93s-.34-4.34-.43-5.1a11.94,11.94,0,0,1-.08-1.35V297.54A14.63,14.63,0,0,1,168.78,283h.66A14.63,14.63,0,0,1,184,297.54v25.94a11.84,11.84,0,0,1-.09,1.47c-.07.65-.35,6-.35,6v37.9a15.95,15.95,0,0,0,31.9,0V333.2s-.54-8.43-.54-9.72V297.54A14.63,14.63,0,0,1,229.52,283h.66a14.63,14.63,0,0,1,14.58,14.58V323l-.09,1.28c0,.24,0,.49-.07.73,0,0,0,0,0,.08-1.16,19.47,1,45.39,18.08,58.42A36.74,36.74,0,0,0,285.64,391Q301,391,321,380.77c17.56-9.51,69.91-31,100.88-16.12a14.52,14.52,0,1,0,12.54-26.19Z"/>
    <text class="cls-2" transform="translate(313.59 293.29)">
        <tspan class="cls-3">K</tspan>
        <tspan x="77.61" y="0">ube-</tspan>
        <tspan class="cls-4" x="366.96" y="0">O</tspan>
        <tspan x="465.5" y="0">VN</tspan>
    </text>
    <path class="cls-5"
          d="M95,197.92c-2.63,20.33,19.52,34.31,38,30.15,21.31-4.78,25-36.48,9.55-49.41-11.66-9.77-28.14-9.38-38.66,1.87-5.42,5.79-8.17,11.73-8.91,17.39Z"/>
    <path class="cls-6" d="M122.12,212c5,.87,8.58-5.65,4.89-9.34-3-3-8.15-2.65-9.14,1.49-.83,3.46.37,7.17,4.25,7.85Z"/>
    <path class="cls-5"
          d="M162.71,202.5c-2.1,16.22,15.57,27.37,30.34,24.06,17-3.82,19.93-29.11,7.61-39.43-9.3-7.79-22.44-7.48-30.84,1.49-4.33,4.62-6.52,9.37-7.11,13.88Z"/>
    <path class="cls-6"
          d="M181.51,211.35c4,.7,6.85-4.5,3.9-7.45-2.35-2.36-6.49-2.11-7.29,1.2-.66,2.75.3,5.71,3.39,6.25Z"/>
    <rect class="cls-1" x="126.18" y="86.86" width="13.37" height="32.48" rx="6.69" ry="6.69"/>
    <circle class="cls-1" cx="132.86" cy="86.02" r="11.53"/>
</svg>